Newsreader-DisplayExtraLightItalic.ufo
<glyph name="exclam" format="2">
  <advance width="480"/>
  <unicode hex="0021"/>
  <outline>
    <contour>
      <point x="560.0" y="1407.0" type="line" smooth="yes"/>
      <point x="568.0" y="1433.0"/>
      <point x="548.0" y="1446.0"/>
      <point x="520.0" y="1446.0" type="curve" smooth="yes"/>
      <point x="496.0" y="1446.0"/>
      <point x="474.0" y="1434.0"/>
      <point x="467.0" y="1411.0" type="curve" smooth="yes"/>
      <point x="458.0" y="1381.0" type="line" smooth="yes"/>
      <point x="449.0" y="1350.0"/>
      <point x="287.0" y="717.0"/>
      <point x="191.0" y="396.0" type="curve"/>
      <point x="214.0" y="396.0" type="line"/>
      <point x="315.0" y="717.0"/>
      <point x="543.0" y="1349.0"/>
      <point x="551.0" y="1377.0" type="curve" smooth="yes"/>
    </contour>
    <contour>
      <point x="111.0" y="155.0" type="curve" smooth="yes"/>
      <point x="54.0" y="155.0"/>
      <point x="19.0" y="114.0"/>
      <point x="19.0" y="63.0" type="curve" smooth="yes"/>
      <point x="19.0" y="18.0"/>
      <point x="52.0" y="-14.0"/>
      <point x="99.0" y="-14.0" type="curve" smooth="yes"/>
      <point x="156.0" y="-14.0"/>
      <point x="191.0" y="27.0"/>
      <point x="191.0" y="78.0" type="curve" smooth="yes"/>
      <point x="191.0" y="123.0"/>
      <point x="158.0" y="155.0"/>
    </contour>
  </outline>
</glyph>
<glyph name="ampersand" format="2">
  <advance width="1367"/>
  <unicode hex="0026"/>
  <outline>
    <contour>
      <point x="904.0" y="254.0" type="line"/>
      <point x="1022.0" y="389.0"/>
      <point x="1144.0" y="583.0"/>
      <point x="1275.0" y="837.0" type="curve"/>
      <point x="1442.0" y="861.0" type="line"/>
      <point x="1446.0" y="874.0" type="line"/>
      <point x="1066.0" y="874.0" type="line"/>
      <point x="1062.0" y="861.0" type="line"/>
      <point x="1219.0" y="837.0" type="line"/>
      <point x="1112.0" y="585.0"/>
      <point x="1003.0" y="403.0"/>
      <point x="893.0" y="276.0" type="curve"/>
      <point x="863.0" y="242.0" type="line"/>
      <point x="721.0" y="90.0"/>
      <point x="577.0" y="29.0"/>
      <point x="433.0" y="29.0" type="curve" smooth="yes"/>
      <point x="261.0" y="29.0"/>
      <point x="138.0" y="135.0"/>
      <point x="138.0" y="326.0" type="curve" smooth="yes"/>
      <point x="138.0" y="490.0"/>
      <point x="216.0" y="634.0"/>
      <point x="569.0" y="780.0" type="curve"/>
      <point x="611.0" y="795.0" type="line"/>
      <point x="939.0" y="944.0"/>
      <point x="1048.0" y="1075.0"/>
      <point x="1048.0" y="1225.0" type="curve" smooth="yes"/>
      <point x="1048.0" y="1348.0"/>
      <point x="963.0" y="1450.0"/>
      <point x="788.0" y="1450.0" type="curve" smooth="yes"/>
      <point x="604.0" y="1450.0"/>
      <point x="445.0" y="1342.0"/>
      <point x="445.0" y="1134.0" type="curve" smooth="yes"/>
      <point x="445.0" y="1039.0"/>
      <point x="476.0" y="923.0"/>
      <point x="551.0" y="787.0" type="curve" smooth="yes"/>
      <point x="983.0" y="0.0" type="line"/>
      <point x="1228.0" y="0.0" type="line"/>
      <point x="1231.0" y="10.0" type="line"/>
      <point x="1039.0" y="43.0" type="line"/>
      <point x="592.0" y="853.0" type="line" smooth="yes"/>
      <point x="535.0" y="956.0"/>
      <point x="503.0" y="1066.0"/>
      <point x="503.0" y="1171.0" type="curve" smooth="yes"/>
      <point x="503.0" y="1316.0"/>
      <point x="610.0" y="1424.0"/>
      <point x="781.0" y="1424.0" type="curve" smooth="yes"/>
      <point x="915.0" y="1424.0"/>
      <point x="992.0" y="1343.0"/>
      <point x="992.0" y="1225.0" type="curve" smooth="yes"/>
      <point x="992.0" y="1064.0"/>
      <point x="879.0" y="942.0"/>
      <point x="603.0" y="815.0" type="curve"/>
      <point x="572.0" y="802.0" type="line"/>
      <point x="153.0" y="639.0"/>
      <point x="68.0" y="483.0"/>
      <point x="68.0" y="301.0" type="curve" smooth="yes"/>
      <point x="68.0" y="98.0"/>
      <point x="197.0" y="-20.0"/>
      <point x="413.0" y="-20.0" type="curve" smooth="yes"/>
      <point x="562.0" y="-20.0"/>
      <point x="713.0" y="47.0"/>
      <point x="874.0" y="221.0" type="curve"/>
    </contour>
  </outline>
</glyph>
<glyph name="parenleft" format="2">
  <advance width="492"/>
  <unicode hex="0028"/>
  <outline>
    <contour>
      <point x="137.0" y="578.0"/>
      <point x="236.0" y="908.0"/>
      <point x="716.0" y="1432.0" type="curve"/>
      <point x="697.0" y="1450.0" type="line"/>
      <point x="198.0" y="936.0"/>
      <point x="78.0" y="686.0"/>
      <point x="78.0" y="315.0" type="curve" smooth="yes"/>
      <point x="78.0" y="131.0"/>
      <point x="121.0" y="-33.0"/>
      <point x="184.0" y="-228.0" type="curve"/>
      <point x="207.0" y="-220.0" type="line"/>
      <point x="159.0" y="-56.0"/>
      <point x="137.0" y="91.0"/>
      <point x="137.0" y="292.0" type="curve" smooth="yes"/>
    </contour>
  </outline>
</glyph>
<glyph name="asterisk" format="2">
  <advance width="749"/>
  <unicode hex="002A"/>
  <outline>
    <contour>
      <point x="690.0" y="911.0" type="line"/>
      <point x="614.0" y="1142.0" type="line"/>
      <point x="858.0" y="1182.0" type="line"/>
      <point x="857.0" y="1199.0" type="line"/>
      <point x="610.0" y="1200.0" type="line"/>
      <point x="653.0" y="1443.0" type="line"/>
      <point x="635.0" y="1448.0" type="line"/>
      <point x="554.0" y="1213.0" type="line"/>
      <point x="337.0" y="1326.0" type="line"/>
      <point x="328.0" y="1312.0" type="line"/>
      <point x="523.0" y="1165.0" type="line"/>
      <point x="352.0" y="992.0" type="line"/>
      <point x="363.0" y="980.0" type="line"/>
      <point x="560.0" y="1121.0" type="line"/>
      <point x="674.0" y="904.0" type="line"/>
    </contour>
  </outline>
</glyph>
<glyph name="comma" format="2">
  <advance width="315"/>
  <unicode hex="002C"/>
  <outline>
    <contour>
      <point x="-165.0" y="-267.0" type="curve"/>
      <point x="-155.0" y="-281.0" type="line"/>
      <point x="61.0" y="-128.0"/>
      <point x="122.0" y="-14.0"/>
      <point x="122.0" y="77.0" type="curve" smooth="yes"/>
      <point x="122.0" y="130.0"/>
      <point x="89.0" y="155.0"/>
      <point x="51.0" y="155.0" type="curve" smooth="yes"/>
      <point x="-3.0" y="155.0"/>
      <point x="-33.0" y="114.0"/>
      <point x="-33.0" y="76.0" type="curve" smooth="yes"/>
      <point x="-33.0" y="44.0"/>
      <point x="42.0" y="46.0"/>
      <point x="42.0" y="-6.0" type="curve" smooth="yes"/>
      <point x="42.0" y="-60.0"/>
      <point x="-8.0" y="-148.0"/>
    </contour>
  </outline>
</glyph>
<glyph name="hyphen" format="2">
  <advance width="525"/>
  <unicode hex="002D"/>
  <outline>
    <contour>
      <point x="103.0" y="548.0" type="line"/>
      <point x="80.0" y="476.0" type="line"/>
      <point x="422.0" y="476.0" type="line"/>
      <point x="445.0" y="548.0" type="line"/>
    </contour>
  </outline>
</glyph>
<glyph name="zero" format="2">
  <advance width="1200"/>
  <unicode hex="0030"/>
  <outline>
    <contour>
      <point x="209.0" y="356.0" type="curve" smooth="yes"/>
      <point x="209.0" y="714.0"/>
      <point x="471.0" y="1427.0"/>
      <point x="873.0" y="1427.0" type="curve" smooth="yes"/>
      <point x="1022.0" y="1427.0"/>
      <point x="1115.0" y="1324.0"/>
      <point x="1115.0" y="1074.0" type="curve" smooth="yes"/>
      <point x="1115.0" y="716.0"/>
      <point x="853.0" y="3.0"/>
      <point x="451.0" y="3.0" type="curve" smooth="yes"/>
      <point x="302.0" y="3.0"/>
      <point x="209.0" y="106.0"/>
    </contour>
    <contour>
      <point x="870.0" y="1450.0" type="curve" smooth="yes"/>
      <point x="426.0" y="1450.0"/>
      <point x="137.0" y="813.0"/>
      <point x="137.0" y="378.0" type="curve" smooth="yes"/>
      <point x="137.0" y="134.0"/>
      <point x="239.0" y="-20.0"/>
      <point x="454.0" y="-20.0" type="curve" smooth="yes"/>
      <point x="898.0" y="-20.0"/>
      <point x="1187.0" y="617.0"/>
      <point x="1187.0" y="1052.0" type="curve" smooth="yes"/>
      <point x="1187.0" y="1296.0"/>
      <point x="1085.0" y="1450.0"/>
    </contour>
  </outline>
</glyph>
<glyph name="one" format="2">
  <advance width="1200"/>
  <unicode hex="0031"/>
  <outline>
    <contour>
      <point x="493.0" y="40.0" type="line"/>
      <point x="200.0" y="12.0" type="line"/>
      <point x="195.0" y="0.0" type="line"/>
      <point x="850.0" y="0.0" type="line"/>
      <point x="857.0" y="12.0" type="line"/>
      <point x="568.0" y="40.0" type="line"/>
      <point x="999.0" y="1449.0" type="line"/>
      <point x="983.0" y="1449.0" type="line"/>
      <point x="476.0" y="1240.0" type="line"/>
      <point x="480.0" y="1228.0" type="line"/>
      <point x="918.0" y="1356.0" type="line"/>
      <point x="898.0" y="1362.0" type="line"/>
    </contour>
  </outline>
</glyph>
<glyph name="colon" format="2">
  <advance width="435"/>
  <unicode hex="003A"/>
  <outline>
    <contour>
      <point x="88.0" y="155.0" type="curve" smooth="yes"/>
      <point x="31.0" y="155.0"/>
      <point x="-4.0" y="114.0"/>
      <point x="-4.0" y="63.0" type="curve" smooth="yes"/>
      <point x="-4.0" y="18.0"/>
      <point x="29.0" y="-14.0"/>
      <point x="76.0" y="-14.0" type="curve" smooth="yes"/>
      <point x="133.0" y="-14.0"/>
      <point x="168.0" y="27.0"/>
      <point x="168.0" y="78.0" type="curve" smooth="yes"/>
      <point x="168.0" y="123.0"/>
      <point x="135.0" y="155.0"/>
    </contour>
    <contour>
      <point x="358.0" y="1038.0" type="curve" smooth="yes"/>
      <point x="301.0" y="1038.0"/>
      <point x="266.0" y="997.0"/>
      <point x="266.0" y="946.0" type="curve" smooth="yes"/>
      <point x="266.0" y="901.0"/>
      <point x="299.0" y="869.0"/>
      <point x="346.0" y="869.0" type="curve" smooth="yes"/>
      <point x="403.0" y="869.0"/>
      <point x="438.0" y="910.0"/>
      <point x="438.0" y="961.0" type="curve" smooth="yes"/>
      <point x="438.0" y="1006.0"/>
      <point x="405.0" y="1038.0"/>
    </contour>
  </outline>
</glyph>
<glyph name="semicolon" format="2">
  <advance width="452"/>
  <unicode hex="003B"/>
  <outline>
    <contour>
      <point x="-114.0" y="-267.0" type="curve"/>
      <point x="-104.0" y="-281.0" type="line"/>
      <point x="112.0" y="-128.0"/>
      <point x="173.0" y="-14.0"/>
      <point x="173.0" y="77.0" type="curve" smooth="yes"/>
      <point x="173.0" y="130.0"/>
      <point x="140.0" y="155.0"/>
      <point x="102.0" y="155.0" type="curve" smooth="yes"/>
      <point x="48.0" y="155.0"/>
      <point x="18.0" y="114.0"/>
      <point x="18.0" y="76.0" type="curve" smooth="yes"/>
      <point x="18.0" y="44.0"/>
      <point x="93.0" y="46.0"/>
      <point x="93.0" y="-6.0" type="curve" smooth="yes"/>
      <point x="93.0" y="-60.0"/>
      <point x="43.0" y="-148.0"/>
    </contour>
    <contour>
      <point x="369.0" y="1038.0" type="curve" smooth="yes"/>
      <point x="312.0" y="1038.0"/>
      <point x="277.0" y="997.0"/>
      <point x="277.0" y="946.0" type="curve" smooth="yes"/>
      <point x="277.0" y="901.0"/>
      <point x="310.0" y="869.0"/>
      <point x="357.0" y="869.0" type="curve" smooth="yes"/>
      <point x="414.0" y="869.0"/>
      <point x="449.0" y="910.0"/>
      <point x="449.0" y="961.0" type="curve" smooth="yes"/>
      <point x="449.0" y="1006.0"/>
      <point x="416.0" y="1038.0"/>
    </contour>
  </outline>
</glyph>
<glyph name="greater" format="2">
  <advance width="1150"/>
  <unicode hex="003E"/>
  <outline>
    <contour>
      <point x="981.0" y="526.0" type="line"/>
      <point x="66.0" y="171.0" type="line"/>
      <point x="49.0" y="115.0" type="line"/>
      <point x="999.0" y="488.0" type="line"/>
      <point x="1013.0" y="536.0" type="line"/>
      <point x="291.0" y="909.0" type="line"/>
      <point x="278.0" y="863.0" type="line"/>
      <point x="973.0" y="502.0" type="line"/>
    </contour>
  </outline>
</glyph>
<glyph name="A" format="2">
  <advance width="1359"/>
  <unicode hex="0041"/>
  <anchor x="921.0" y="1430" name="UCtop"/>
  <anchor x="533.0" y="0" name="bottom"/>
  <anchor x="1129.0" y="0" name="right"/>
  <outline>
    <contour>
      <point x="411.0" y="591.0" type="line"/>
      <point x="989.0" y="591.0" type="line"/>
      <point x="998.0" y="619.0" type="line"/>
      <point x="420.0" y="619.0" type="line"/>
    </contour>
    <contour>
      <point x="1067.0" y="38.0" type="line"/>
      <point x="973.0" y="1450.0" type="line"/>
      <point x="951.0" y="1450.0" type="line"/>
      <point x="28.0" y="38.0" type="line"/>
      <point x="-152.0" y="12.0" type="line"/>
      <point x="-155.0" y="0.0" type="line"/>
      <point x="230.0" y="0.0" type="line"/>
      <point x="233.0" y="12.0" type="line"/>
      <point x="64.0" y="38.0" type="line"/>
      <point x="917.0" y="1349.0" type="line"/>
      <point x="905.0" y="1349.0" type="line"/>
      <point x="992.0" y="38.0" type="line"/>
      <point x="813.0" y="12.0" type="line"/>
      <point x="809.0" y="0.0" type="line"/>
      <point x="1233.0" y="0.0" type="line"/>
      <point x="1236.0" y="12.0" type="line"/>
    </contour>
  </outline>
</glyph>
<glyph name="D" format="2">
  <advance width="1434"/>
  <unicode hex="0044"/>
  <anchor x="1024.0" y="1430" name="UCtop"/>
  <anchor x="596.0" y="0" name="bottom"/>
  <outline>
    <contour>
      <point x="1332.0" y="441.0"/>
      <point x="1036.0" y="28.0"/>
      <point x="402.0" y="28.0" type="curve" smooth="yes"/>
      <point x="96.0" y="28.0" type="line"/>
      <point x="106.0" y="0.0" type="line"/>
      <point x="447.0" y="0.0" type="line" smooth="yes"/>
      <point x="1057.0" y="0.0"/>
      <point x="1412.0" y="407.0"/>
      <point x="1412.0" y="911.0" type="curve" smooth="yes"/>
      <point x="1412.0" y="1231.0"/>
      <point x="1179.0" y="1430.0"/>
      <point x="779.0" y="1430.0" type="curve" smooth="yes"/>
      <point x="543.0" y="1430.0" type="line"/>
      <point x="515.0" y="1402.0" type="line"/>
      <point x="751.0" y="1402.0" type="line" smooth="yes"/>
      <point x="1120.0" y="1402.0"/>
      <point x="1332.0" y="1226.0"/>
      <point x="1332.0" y="904.0" type="curve" smooth="yes"/>
    </contour>
    <contour>
      <point x="510.0" y="1394.0" type="line"/>
      <point x="96.0" y="36.0" type="line"/>
      <point x="-83.0" y="12.0" type="line"/>
      <point x="-86.0" y="0.0" type="line"/>
      <point x="161.0" y="0.0" type="line"/>
      <point x="598.0" y="1430.0" type="line"/>
      <point x="343.0" y="1430.0" type="line"/>
      <point x="339.0" y="1418.0" type="line"/>
    </contour>
  </outline>
</glyph>
<glyph name="I" format="2">
  <advance width="561"/>
  <unicode hex="0049"/>
  <anchor x="553.0" y="1430" name="UCtop"/>
  <anchor x="195.0" y="0" name="right"/>
  <anchor x="115.0" y="0" name="bottom"/>
  <outline>
    <contour>
      <point x="510.0" y="1394.0" type="line"/>
      <point x="96.0" y="36.0" type="line"/>
      <point x="-83.0" y="12.0" type="line"/>
      <point x="-86.0" y="0.0" type="line"/>
      <point x="339.0" y="0.0" type="line"/>
      <point x="343.0" y="12.0" type="line"/>
      <point x="172.0" y="36.0" type="line"/>
      <point x="587.0" y="1394.0" type="line"/>
      <point x="765.0" y="1418.0" type="line"/>
      <point x="769.0" y="1430.0" type="line"/>
      <point x="343.0" y="1430.0" type="line"/>
      <point x="339.0" y="1418.0" type="line"/>
    </contour>
  </outline>
</glyph>
<glyph name="J" format="2">
  <advance width="632"/>
  <unicode hex="004A"/>
  <anchor x="651.0" y="1430" name="UCtop"/>
  <anchor x="93.0" y="0" name="bottom"/>
  <outline>
    <contour>
      <point x="385.0" y="417.0" type="curve" smooth="yes"/>
      <point x="684.0" y="1394.0" type="line"/>
      <point x="862.0" y="1418.0" type="line"/>
      <point x="866.0" y="1430.0" type="line"/>
      <point x="440.0" y="1430.0" type="line"/>
      <point x="436.0" y="1418.0" type="line"/>
      <point x="607.0" y="1394.0" type="line"/>
      <point x="262.0" y="266.0" type="line" smooth="yes"/>
      <point x="215.0" y="110.0"/>
      <point x="135.0" y="33.0"/>
      <point x="27.0" y="33.0" type="curve" smooth="yes"/>
      <point x="-23.0" y="33.0"/>
      <point x="-62.0" y="68.0"/>
      <point x="-90.0" y="68.0" type="curve" smooth="yes"/>
      <point x="-114.0" y="68.0"/>
      <point x="-127.0" y="53.0"/>
      <point x="-127.0" y="30.0" type="curve" smooth="yes"/>
      <point x="-127.0" y="-1.0"/>
      <point x="-104.0" y="-17.0"/>
      <point x="-48.0" y="-17.0" type="curve" smooth="yes"/>
      <point x="130.0" y="-17.0"/>
      <point x="297.0" y="129.0"/>
    </contour>
  </outline>
</glyph>
<glyph name="O" format="2">
  <advance width="1503"/>
  <unicode hex="004F"/>
  <guideline x="813.0" y="715" angle="1.5973823579050237" identifier="EQZSzrs0yu"/>
  <anchor x="1032.0" y="1430" name="UCtop"/>
  <anchor x="594.0" y="0" name="bottom"/>
  <anchor x="684.0" y="0" name="right"/>
  <anchor x="1349.0" y="1430" name="horn"/>
  <outline>
    <contour>
      <point x="217.0" y="490.0" type="curve" smooth="yes"/>
      <point x="217.0" y="905.0"/>
      <point x="527.0" y="1423.0"/>
      <point x="994.0" y="1423.0" type="curve" smooth="yes"/>
      <point x="1264.0" y="1423.0"/>
      <point x="1410.0" y="1257.0"/>
      <point x="1410.0" y="940.0" type="curve" smooth="yes"/>
      <point x="1410.0" y="525.0"/>
      <point x="1100.0" y="7.0"/>
      <point x="633.0" y="7.0" type="curve" smooth="yes"/>
      <point x="363.0" y="7.0"/>
      <point x="217.0" y="173.0"/>
    </contour>
    <contour>
      <point x="1488.0" y="915.0" type="curve" smooth="yes"/>
      <point x="1488.0" y="1238.0"/>
      <point x="1334.0" y="1450.0"/>
      <point x="990.0" y="1450.0" type="curve" smooth="yes"/>
      <point x="497.0" y="1450.0"/>
      <point x="139.0" y="958.0"/>
      <point x="139.0" y="515.0" type="curve" smooth="yes"/>
      <point x="139.0" y="192.0"/>
      <point x="293.0" y="-20.0"/>
      <point x="637.0" y="-20.0" type="curve" smooth="yes"/>
      <point x="1130.0" y="-20.0"/>
      <point x="1488.0" y="472.0"/>
    </contour>
  </outline>
</glyph>
<glyph name="P" format="2">
  <advance width="1122"/>
  <unicode hex="0050"/>
  <anchor x="855.0" y="1430" name="UCtop"/>
  <anchor x="123.0" y="0" name="bottom"/>
  <outline>
    <contour>
      <point x="1157.0" y="875.0"/>
      <point x="977.0" y="693.0"/>
      <point x="569.0" y="693.0" type="curve" smooth="yes"/>
      <point x="325.0" y="693.0" type="line"/>
      <point x="316.0" y="665.0" type="line"/>
      <point x="612.0" y="665.0" type="line" smooth="yes"/>
      <point x="995.0" y="665.0"/>
      <point x="1235.0" y="847.0"/>
      <point x="1235.0" y="1138.0" type="curve" smooth="yes"/>
      <point x="1235.0" y="1299.0"/>
      <point x="1121.0" y="1430.0"/>
      <point x="831.0" y="1430.0" type="curve" smooth="yes"/>
      <point x="560.0" y="1430.0" type="line"/>
      <point x="541.0" y="1402.0" type="line"/>
      <point x="785.0" y="1402.0" type="line" smooth="yes"/>
      <point x="1041.0" y="1402.0"/>
      <point x="1157.0" y="1307.0"/>
      <point x="1157.0" y="1145.0" type="curve" smooth="yes"/>
    </contour>
    <contour>
      <point x="172.0" y="36.0" type="line"/>
      <point x="598.0" y="1430.0" type="line"/>
      <point x="343.0" y="1430.0" type="line"/>
      <point x="339.0" y="1418.0" type="line"/>
      <point x="510.0" y="1394.0" type="line"/>
      <point x="96.0" y="36.0" type="line"/>
      <point x="-83.0" y="12.0" type="line"/>
      <point x="-86.0" y="0.0" type="line"/>
      <point x="339.0" y="0.0" type="line"/>
      <point x="343.0" y="12.0" type="line"/>
    </contour>
  </outline>
</glyph>
<glyph name="V" format="2">
  <advance width="1338"/>
  <unicode hex="0056"/>
  <anchor x="939.0" y="1430" name="UCtop"/>
  <anchor x="531.0" y="0" name="bottom"/>
  <outline>
    <contour>
      <point x="417.0" y="1390.0" type="line"/>
      <point x="502.0" y="-21.0" type="line"/>
      <point x="523.0" y="-21.0" type="line"/>
      <point x="1431.0" y="1390.0" type="line"/>
      <point x="1608.0" y="1414.0" type="line"/>
      <point x="1613.0" y="1430.0" type="line"/>
      <point x="1226.0" y="1430.0" type="line"/>
      <point x="1221.0" y="1414.0" type="line"/>
      <point x="1395.0" y="1390.0" type="line"/>
      <point x="555.0" y="80.0" type="line"/>
      <point x="569.0" y="80.0" type="line"/>
      <point x="495.0" y="1390.0" type="line"/>
      <point x="671.0" y="1414.0" type="line"/>
      <point x="676.0" y="1430.0" type="line"/>
      <point x="249.0" y="1430.0" type="line"/>
      <point x="244.0" y="1414.0" type="line"/>
    </contour>
  </outline>
</glyph>
<glyph name="W" format="2">
  <advance width="1852"/>
  <unicode hex="0057"/>
  <anchor x="1165.0" y="1430" name="UCtop"/>
  <anchor x="787.0" y="0" name="bottom"/>
  <outline>
    <contour>
      <point x="1902.0" y="1391.0" type="line"/>
      <point x="1195.0" y="80.0" type="line"/>
      <point x="1224.0" y="91.0" type="line"/>
      <point x="1226.0" y="1451.0" type="line"/>
      <point x="1204.0" y="1451.0" type="line"/>
      <point x="354.0" y="50.0" type="line"/>
      <point x="402.0" y="91.0" type="line"/>
      <point x="497.0" y="1391.0" type="line"/>
      <point x="679.0" y="1415.0" type="line"/>
      <point x="684.0" y="1430.0" type="line"/>
      <point x="263.0" y="1430.0" type="line"/>
      <point x="258.0" y="1415.0" type="line"/>
      <point x="425.0" y="1391.0" type="line"/>
      <point x="327.0" y="-21.0" type="line"/>
      <point x="348.0" y="-21.0" type="line"/>
      <point x="1174.0" y="1346.0" type="line"/>
      <point x="1152.0" y="1339.0" type="line"/>
      <point x="1152.0" y="-21.0" type="line"/>
      <point x="1175.0" y="-21.0" type="line"/>
      <point x="1941.0" y="1391.0" type="line"/>
      <point x="2125.0" y="1415.0" type="line"/>
      <point x="2130.0" y="1430.0" type="line"/>
      <point x="1740.0" y="1430.0" type="line"/>
      <point x="1735.0" y="1415.0" type="line"/>
    </contour>
  </outline>
</glyph>
<glyph name="Y" format="2">
  <advance width="1322"/>
  <unicode hex="0059"/>
  <anchor x="938.0" y="1430" name="UCtop"/>
  <anchor x="530.0" y="0" name="bottom"/>
  <outline>
    <contour>
      <point x="1351.0" y="1394.0" type="line"/>
      <point x="719.0" y="644.0" type="line"/>
      <point x="735.0" y="645.0" type="line"/>
      <point x="504.0" y="1394.0" type="line"/>
      <point x="686.0" y="1418.0" type="line"/>
      <point x="690.0" y="1430.0" type="line"/>
      <point x="257.0" y="1430.0" type="line"/>
      <point x="253.0" y="1418.0" type="line"/>
      <point x="420.0" y="1394.0" type="line"/>
      <point x="664.0" y="622.0" type="line"/>
      <point x="486.0" y="36.0" type="line"/>
      <point x="307.0" y="12.0" type="line"/>
      <point x="304.0" y="0.0" type="line"/>
      <point x="729.0" y="0.0" type="line"/>
      <point x="733.0" y="12.0" type="line"/>
      <point x="562.0" y="36.0" type="line"/>
      <point x="741.0" y="624.0" type="line"/>
      <point x="1392.0" y="1394.0" type="line"/>
      <point x="1577.0" y="1418.0" type="line"/>
      <point x="1580.0" y="1430.0" type="line"/>
      <point x="1188.0" y="1430.0" type="line"/>
      <point x="1185.0" y="1418.0" type="line"/>
    </contour>
  </outline>
</glyph>
<glyph name="bracketleft" format="2">
  <advance width="518"/>
  <unicode hex="005B"/>
  <outline>
    <contour>
      <point x="-22.0" y="-208.0" type="line"/>
      <point x="261.0" y="-208.0" type="line"/>
      <point x="267.0" y="-188.0" type="line"/>
      <point x="56.0" y="-168.0" type="line"/>
      <point x="543.0" y="1425.0" type="line"/>
      <point x="766.0" y="1445.0" type="line"/>
      <point x="772.0" y="1465.0" type="line"/>
      <point x="490.0" y="1465.0" type="line"/>
    </contour>
  </outline>
</glyph>
<glyph name="backslash" format="2">
  <advance width="746"/>
  <unicode hex="005C"/>
  <outline>
    <contour>
      <point x="528.0" y="0.0" type="line"/>
      <point x="389.0" y="1430.0" type="line"/>
      <point x="339.0" y="1430.0" type="line"/>
      <point x="478.0" y="0.0" type="line"/>
    </contour>
  </outline>
</glyph>
<glyph name="asciicircum" format="2">
  <advance width="1150"/>
  <unicode hex="005E"/>
  <outline>
    <contour>
      <point x="842.0" y="1398.0" type="line"/>
      <point x="960.0" y="662.0" type="line"/>
      <point x="1003.0" y="662.0" type="line"/>
      <point x="876.0" y="1430.0" type="line"/>
      <point x="840.0" y="1430.0" type="line"/>
      <point x="245.0" y="662.0" type="line"/>
      <point x="298.0" y="662.0" type="line"/>
      <point x="862.0" y="1398.0" type="line"/>
    </contour>
  </outline>
</glyph>
<glyph name="l" format="2">
  <advance width="464"/>
  <unicode hex="006C"/>
  <guideline x="559.0" y="1484" angle="174.9059418645951" identifier="svI1ej8q0a"/>
  <anchor x="437.0" y="1430" name="UCtop"/>
  <anchor x="527.0" y="1464" name="right"/>
  <anchor x="99.0" y="0" name="bottom"/>
  <anchor x="477.0" y="582.0" name="mid"/>
  <outline>
    <contour>
      <point x="307.0" y="1412.1405405405405"/>
      <point x="399.0" y="1396.227027027027"/>
      <point x="435.0" y="1390.0" type="curve"/>
      <point x="26.0" y="60.0" type="line" smooth="yes"/>
      <point x="8.0" y="1.0"/>
      <point x="25.0" y="-20.0"/>
      <point x="63.0" y="-20.0" type="curve" smooth="yes"/>
      <point x="155.0" y="-20.0"/>
      <point x="269.0" y="46.0"/>
      <point x="439.0" y="269.0" type="curve"/>
      <point x="431.0" y="276.0" type="line"/>
      <point x="256.0" y="90.0"/>
      <point x="107.0" y="26.0"/>
      <point x="49.0" y="49.0" type="curve"/>
      <point x="79.0" y="10.0" type="line"/>
      <point x="533.0" y="1484.0" type="line"/>
      <point x="520.0" y="1484.0" type="line"/>
      <point x="255.0" y="1436.0" type="line"/>
      <point x="250.0" y="1422.0" type="line"/>
    </contour>
  </outline>
</glyph>
<glyph name="n" format="2">
  <advance width="1047"/>
  <unicode hex="006E"/>
  <anchor x="718.0" y="1024" name="top"/>
  <anchor x="394.0" y="0" name="bottom"/>
  <outline>
    <contour>
      <point x="61.0" y="635.0" type="line"/>
      <point x="215.0" y="929.0"/>
      <point x="312.0" y="967.0"/>
      <point x="353.0" y="967.0" type="curve" smooth="yes"/>
      <point x="380.0" y="967.0"/>
      <point x="393.0" y="953.0"/>
      <point x="379.0" y="910.0" type="curve" smooth="yes"/>
      <point x="76.0" y="0.0" type="line"/>
      <point x="146.0" y="0.0" type="line"/>
      <point x="319.0" y="520.0" type="line"/>
      <point x="412.0" y="713.0"/>
      <point x="576.0" y="983.0"/>
      <point x="797.0" y="983.0" type="curve" smooth="yes"/>
      <point x="856.0" y="983.0"/>
      <point x="910.0" y="960.0"/>
      <point x="910.0" y="892.0" type="curve" smooth="yes"/>
      <point x="910.0" y="861.0"/>
      <point x="898.0" y="814.0"/>
      <point x="849.0" y="696.0" type="curve" smooth="yes"/>
      <point x="592.0" y="73.0" type="line" smooth="yes"/>
      <point x="568.0" y="15.0"/>
      <point x="568.0" y="-20.0"/>
      <point x="624.0" y="-20.0" type="curve" smooth="yes"/>
      <point x="717.0" y="-20.0"/>
      <point x="812.0" y="39.0"/>
      <point x="991.0" y="290.0" type="curve"/>
      <point x="984.0" y="295.0" type="line"/>
      <point x="807.0" y="81.0"/>
      <point x="669.0" y="26.0"/>
      <point x="611.0" y="49.0" type="curve"/>
      <point x="637.0" y="6.0" type="line"/>
      <point x="929.0" y="715.0" type="line" smooth="yes"/>
      <point x="978.0" y="834.0"/>
      <point x="988.0" y="874.0"/>
      <point x="988.0" y="917.0" type="curve" smooth="yes"/>
      <point x="988.0" y="991.0"/>
      <point x="927.0" y="1044.0"/>
      <point x="819.0" y="1044.0" type="curve" smooth="yes"/>
      <point x="594.0" y="1044.0"/>
      <point x="426.0" y="802.0"/>
      <point x="308.0" y="516.0" type="curve"/>
      <point x="328.0" y="553.0" type="line"/>
      <point x="475.0" y="1015.0" type="line"/>
      <point x="452.0" y="1029.0"/>
      <point x="432.0" y="1037.0"/>
      <point x="396.0" y="1037.0" type="curve" smooth="yes"/>
      <point x="301.0" y="1037.0"/>
      <point x="193.0" y="969.0"/>
      <point x="52.0" y="639.0" type="curve"/>
    </contour>
  </outline>
</glyph>
<glyph name="t" format="2">
  <advance width="581"/>
  <unicode hex="0074"/>
  <guideline x="523.0" y="1270" angle="1.9973212714281208" identifier="XrFAlUQJsT"/>
  <anchor x="525.0" y="1505" name="right"/>
  <anchor x="217.0" y="0" name="bottom"/>
  <outline>
    <contour>
      <point x="147.0" y="997.0" type="line"/>
      <point x="646.0" y="997.0" type="line"/>
      <point x="652.0" y="1024.0" type="line"/>
      <point x="159.0" y="1024.0" type="line"/>
    </contour>
    <contour>
      <point x="200.0" y="259.0" type="curve" smooth="yes"/>
      <point x="524.0" y="1270.0" type="line"/>
      <point x="452.0" y="1270.0" type="line"/>
      <point x="115.0" y="219.0" type="line" smooth="yes"/>
      <point x="99.0" y="169.0"/>
      <point x="92.0" y="128.0"/>
      <point x="92.0" y="95.0" type="curve" smooth="yes"/>
      <point x="92.0" y="14.0"/>
      <point x="136.0" y="-20.0"/>
      <point x="204.0" y="-20.0" type="curve" smooth="yes"/>
      <point x="302.0" y="-20.0"/>
      <point x="386.0" y="48.0"/>
      <point x="524.0" y="295.0" type="curve"/>
      <point x="515.0" y="300.0" type="line"/>
      <point x="367.0" y="66.0"/>
      <point x="286.0" y="30.0"/>
      <point x="230.0" y="30.0" type="curve" smooth="yes"/>
      <point x="189.0" y="30.0"/>
      <point x="166.0" y="49.0"/>
      <point x="166.0" y="101.0" type="curve" smooth="yes"/>
      <point x="166.0" y="137.0"/>
      <point x="177.0" y="188.0"/>
    </contour>
  </outline>
</glyph>
<glyph name="x" format="2">
  <advance width="922"/>
  <unicode hex="0078"/>
  <anchor x="596.0" y="1024" name="top"/>
  <anchor x="342.0" y="0" name="bottom"/>
  <outline>
    <contour>
      <point x="479" y="530" type="line"/>
      <point x="605" y="716" type="line" smooth="yes"/>
      <point x="749" y="929"/>
      <point x="802" y="980"/>
      <point x="862" y="980" type="curve" smooth="yes"/>
      <point x="890" y="980"/>
      <point x="899" y="967"/>
      <point x="891" y="931" type="curve" smooth="yes"/>
      <point x="883" y="895"/>
      <point x="893" y="880"/>
      <point x="926" y="880" type="curve" smooth="yes"/>
      <point x="966" y="880"/>
      <point x="1001" y="916"/>
      <point x="1001" y="963" type="curve" smooth="yes"/>
      <point x="1001" y="1016"/>
      <point x="969" y="1044"/>
      <point x="910" y="1044" type="curve" smooth="yes"/>
      <point x="824" y="1044"/>
      <point x="752" y="982"/>
      <point x="627" y="792" type="curve" smooth="yes"/>
      <point x="473" y="557" type="line"/>
      <point x="437" y="523" type="line"/>
      <point x="306" y="322" type="line" smooth="yes"/>
      <point x="152" y="86"/>
      <point x="114" y="44"/>
      <point x="56" y="44" type="curve" smooth="yes"/>
      <point x="28.0" y="44"/>
      <point x="20" y="56"/>
      <point x="27" y="93" type="curve" smooth="yes"/>
      <point x="34.0" y="130.0"/>
      <point x="26" y="144.0"/>
      <point x="-8" y="144" type="curve" smooth="yes"/>
      <point x="-50" y="144"/>
      <point x="-83" y="107"/>
      <point x="-83" y="61" type="curve" smooth="yes"/>
      <point x="-83" y="5"/>
      <point x="-51" y="-20"/>
      <point x="8" y="-20" type="curve" smooth="yes"/>
      <point x="86" y="-20"/>
      <point x="153" y="38"/>
      <point x="263" y="211" type="curve" smooth="yes"/>
      <point x="445" y="498" type="line"/>
    </contour>
    <contour>
      <point x="853.0" y="340.0" type="curve"/>
      <point x="844.0" y="340.0" type="line"/>
      <point x="756.0" y="136.0"/>
      <point x="682" y="50"/>
      <point x="621.0" y="50.0" type="curve" smooth="yes"/>
      <point x="590.0" y="50"/>
      <point x="571" y="68"/>
      <point x="560.0" y="137.0" type="curve" smooth="yes"/>
      <point x="440.0" y="878.0" type="line" smooth="yes"/>
      <point x="417.0" y="1022.0"/>
      <point x="395.0" y="1044.0"/>
      <point x="353.0" y="1044.0" type="curve" smooth="yes"/>
      <point x="264.0" y="1044.0"/>
      <point x="190.0" y="946.0"/>
      <point x="119.0" y="684.0" type="curve"/>
      <point x="128.0" y="684.0" type="line"/>
      <point x="204.0" y="896.0"/>
      <point x="265.0" y="969.0"/>
      <point x="325.0" y="969.0" type="curve" smooth="yes"/>
      <point x="348.0" y="969.0"/>
      <point x="361.0" y="952.0"/>
      <point x="372.0" y="887.0" type="curve" smooth="yes"/>
      <point x="496.0" y="122.0" type="line" smooth="yes"/>
      <point x="512.0" y="21.0"/>
      <point x="546.0" y="-20.0"/>
      <point x="602.0" y="-20.0" type="curve" smooth="yes"/>
      <point x="684.0" y="-20.0"/>
      <point x="767.0" y="75.0"/>
    </contour>
  </outline>
</glyph>
<glyph name="braceleft" format="2">
  <advance width="543"/>
  <unicode hex="007B"/>
  <outline>
    <contour>
      <point x="74.0" y="615.0" type="line"/>
      <point x="168.0" y="612.0" type="line" smooth="yes"/>
      <point x="231.0" y="610.0"/>
      <point x="256.0" y="566.0"/>
      <point x="256.0" y="509.0" type="curve" smooth="yes"/>
      <point x="256.0" y="347.0"/>
      <point x="61.0" y="122.0"/>
      <point x="61.0" y="-63.0" type="curve" smooth="yes"/>
      <point x="61.0" y="-143.0"/>
      <point x="98.0" y="-207.0"/>
      <point x="199.0" y="-220.0" type="curve" smooth="yes"/>
      <point x="262.0" y="-228.0" type="line"/>
      <point x="268.0" y="-206.0" type="line"/>
      <point x="212.0" y="-198.0" type="line" smooth="yes"/>
      <point x="145.0" y="-188.0"/>
      <point x="113.0" y="-152.0"/>
      <point x="113.0" y="-84.0" type="curve" smooth="yes"/>
      <point x="113.0" y="83.0"/>
      <point x="298.0" y="316.0"/>
      <point x="298.0" y="491.0" type="curve" smooth="yes"/>
      <point x="298.0" y="565.0"/>
      <point x="265.0" y="626.0"/>
      <point x="178.0" y="636.0" type="curve"/>
      <point x="172.0" y="616.0" type="line"/>
      <point x="306.0" y="631.0"/>
      <point x="382.0" y="703.0"/>
      <point x="418.0" y="824.0" type="curve" smooth="yes"/>
      <point x="454.0" y="945.0"/>
      <point x="460.0" y="1124.0"/>
      <point x="498.0" y="1250.0" type="curve" smooth="yes"/>
      <point x="537.0" y="1376.0"/>
      <point x="609.0" y="1439.0"/>
      <point x="723.0" y="1454.0" type="curve" smooth="yes"/>
      <point x="784.0" y="1462.0" type="line"/>
      <point x="781.0" y="1484.0" type="line"/>
      <point x="714.0" y="1476.0" type="line" smooth="yes"/>
      <point x="554.0" y="1456.0"/>
      <point x="453.0" y="1356.0"/>
      <point x="422.0" y="1223.0" type="curve" smooth="yes"/>
      <point x="391.0" y="1090.0"/>
      <point x="394.0" y="932.0"/>
      <point x="360.0" y="809.0" type="curve" smooth="yes"/>
      <point x="326.0" y="686.0"/>
      <point x="268.0" y="647.0"/>
      <point x="177.0" y="644.0" type="curve" smooth="yes"/>
      <point x="82.0" y="641.0" type="line"/>
    </contour>
  </outline>
</glyph>
<glyph name="bar" format="2">
  <advance width="451"/>
  <unicode hex="007C"/>
  <outline>
    <contour>
      <point x="-89.0" y="-465.0" type="line"/>
      <point x="-36.0" y="-465.0" type="line"/>
      <point x="553.0" y="1535.0" type="line"/>
      <point x="499.0" y="1535.0" type="line"/>
    </contour>
  </outline>
</glyph>
<glyph name="asciitilde" format="2">
  <advance width="1150"/>
  <unicode hex="007E"/>
  <outline>
    <contour>
      <point x="1023.0" y="628.0" type="curve"/>
      <point x="979.0" y="628.0" type="line"/>
      <point x="922.0" y="498.0"/>
      <point x="874.0" y="436.0"/>
      <point x="759.0" y="436.0" type="curve" smooth="yes"/>
      <point x="611.0" y="436.0"/>
      <point x="566.0" y="636.0"/>
      <point x="387.0" y="636.0" type="curve" smooth="yes"/>
      <point x="274.0" y="636.0"/>
      <point x="192.0" y="567.0"/>
      <point x="127.0" y="396.0" type="curve"/>
      <point x="171.0" y="396.0" type="line"/>
      <point x="228.0" y="526.0"/>
      <point x="276.0" y="588.0"/>
      <point x="391.0" y="588.0" type="curve" smooth="yes"/>
      <point x="539.0" y="588.0"/>
      <point x="584.0" y="388.0"/>
      <point x="763.0" y="388.0" type="curve" smooth="yes"/>
      <point x="876.0" y="388.0"/>
      <point x="958.0" y="457.0"/>
    </contour>
  </outline>
</glyph>
<glyph name="exclamdown" format="2">
  <advance width="421"/>
  <unicode hex="00A1"/>
  <outline>
    <contour>
      <point x="-111.0" y="-383.0" type="line" smooth="yes"/>
      <point x="-119.0" y="-409.0"/>
      <point x="-99.0" y="-422.0"/>
      <point x="-71.0" y="-422.0" type="curve" smooth="yes"/>
      <point x="-47.0" y="-422.0"/>
      <point x="-25.0" y="-410.0"/>
      <point x="-18.0" y="-387.0" type="curve" smooth="yes"/>
      <point x="-9.0" y="-357.0" type="line" smooth="yes"/>
      <point x="0.0" y="-326.0"/>
      <point x="162.0" y="307.0"/>
      <point x="258.0" y="628.0" type="curve"/>
      <point x="235.0" y="628.0" type="line"/>
      <point x="134.0" y="307.0"/>
      <point x="-94.0" y="-325.0"/>
      <point x="-102.0" y="-353.0" type="curve" smooth="yes"/>
    </contour>
    <contour>
      <point x="338.0" y="869.0" type="curve" smooth="yes"/>
      <point x="395.0" y="869.0"/>
      <point x="430.0" y="910.0"/>
      <point x="430.0" y="961.0" type="curve" smooth="yes"/>
      <point x="430.0" y="1006.0"/>
      <point x="397.0" y="1038.0"/>
      <point x="350.0" y="1038.0" type="curve" smooth="yes"/>
      <point x="293.0" y="1038.0"/>
      <point x="258.0" y="997.0"/>
      <point x="258.0" y="946.0" type="curve" smooth="yes"/>
      <point x="258.0" y="901.0"/>
      <point x="291.0" y="869.0"/>
    </contour>
  </outline>
</glyph>
<glyph name="currency" format="2">
  <advance width="927"/>
  <unicode hex="00A4"/>
  <outline>
    <contour>
      <point x="222.0" y="826.0" type="line"/>
      <point x="312.0" y="691.0" type="line"/>
      <point x="349.0" y="719.0" type="line"/>
      <point x="256.0" y="853.0" type="line"/>
    </contour>
    <contour>
      <point x="858.0" y="847.0" type="line"/>
      <point x="687.0" y="716.0" type="line"/>
      <point x="711.0" y="682.0" type="line"/>
      <point x="884.0" y="810.0" type="line"/>
    </contour>
    <contour>
      <point x="702.0" y="198.0" type="line"/>
      <point x="612.0" y="333.0" type="line"/>
      <point x="575.0" y="305.0" type="line"/>
      <point x="668.0" y="171.0" type="line"/>
    </contour>
    <contour>
      <point x="40.0" y="214.0" type="line"/>
      <point x="66.0" y="177.0" type="line"/>
      <point x="237.0" y="308.0" type="line"/>
      <point x="213.0" y="342.0" type="line"/>
    </contour>
    <contour>
      <point x="516.0" y="800.0" type="curve" smooth="yes"/>
      <point x="303.0" y="800.0"/>
      <point x="164.0" y="641.0"/>
      <point x="164.0" y="453.0" type="curve" smooth="yes"/>
      <point x="164.0" y="314.0"/>
      <point x="266.0" y="224.0"/>
      <point x="408.0" y="224.0" type="curve" smooth="yes"/>
      <point x="621.0" y="224.0"/>
      <point x="760.0" y="383.0"/>
      <point x="760.0" y="571.0" type="curve" smooth="yes"/>
      <point x="760.0" y="710.0"/>
      <point x="658.0" y="800.0"/>
    </contour>
    <contour>
      <point x="419.0" y="268.0" type="curve" smooth="yes"/>
      <point x="294.0" y="268.0"/>
      <point x="211.0" y="341.0"/>
      <point x="211.0" y="460.0" type="curve" smooth="yes"/>
      <point x="211.0" y="621.0"/>
      <point x="326.0" y="756.0"/>
      <point x="505.0" y="756.0" type="curve" smooth="yes"/>
      <point x="630.0" y="756.0"/>
      <point x="713.0" y="683.0"/>
      <point x="713.0" y="564.0" type="curve" smooth="yes"/>
      <point x="713.0" y="403.0"/>
      <point x="598.0" y="268.0"/>
    </contour>
  </outline>
</glyph>
<glyph name="brokenbar" format="2">
  <advance width="451"/>
  <unicode hex="00A6"/>
  <outline>
    <contour>
      <point x="315.0" y="725.0" type="line"/>
      <point x="554.0" y="1535.0" type="line"/>
      <point x="500.0" y="1535.0" type="line"/>
      <point x="262.0" y="725.0" type="line"/>
    </contour>
    <contour>
      <point x="-88.0" y="-465.0" type="line"/>
      <point x="-35.0" y="-465.0" type="line"/>
      <point x="203.0" y="345.0" type="line"/>
      <point x="150.0" y="345.0" type="line"/>
    </contour>
  </outline>
</glyph>
<glyph name="section" format="2">
  <advance width="974"/>
  <unicode hex="00A7"/>
  <outline>
    <contour>
      <point x="474.0" y="955.0" type="curve"/>
      <point x="456.0" y="967.0" type="line"/>
      <point x="235.0" y="900.0"/>
      <point x="143.0" y="782.0"/>
      <point x="143.0" y="634.0" type="curve" smooth="yes"/>
      <point x="143.0" y="318.0"/>
      <point x="601.0" y="405.0"/>
      <point x="601.0" y="113.0" type="curve" smooth="yes"/>
      <point x="601.0" y="-58.0"/>
      <point x="468.0" y="-198.0"/>
      <point x="254.0" y="-198.0" type="curve" smooth="yes"/>
      <point x="57.0" y="-198.0"/>
      <point x="20.0" y="-63.0"/>
      <point x="-10.0" y="-63.0" type="curve" smooth="yes"/>
      <point x="-39.0" y="-63.0"/>
      <point x="-57.0" y="-83.0"/>
      <point x="-57.0" y="-109.0" type="curve" smooth="yes"/>
      <point x="-57.0" y="-157.0"/>
      <point x="45.0" y="-218.0"/>
      <point x="235.0" y="-218.0" type="curve" smooth="yes"/>
      <point x="486.0" y="-218.0"/>
      <point x="656.0" y="-60.0"/>
      <point x="656.0" y="146.0" type="curve" smooth="yes"/>
      <point x="656.0" y="470.0"/>
      <point x="199.0" y="364.0"/>
      <point x="199.0" y="665.0" type="curve" smooth="yes"/>
      <point x="199.0" y="791.0"/>
      <point x="289.0" y="907.0"/>
    </contour>
    <contour>
      <point x="858.0" y="612.0" type="curve" smooth="yes"/>
      <point x="858.0" y="484.0909090909091"/>
      <point x="747.8115877330654" y="371.4519291748843"/>
      <point x="526.0" y="344.0" type="curve"/>
      <point x="536.0" y="328.0" type="line"/>
      <point x="786.6340978772134" y="363.8048711253162"/>
      <point x="913.0" y="472.85714285714283"/>
      <point x="913.0" y="640.0" type="curve" smooth="yes"/>
      <point x="913.0" y="939.0"/>
      <point x="426.0" y="872.0"/>
      <point x="426.0" y="1161.0" type="curve" smooth="yes"/>
      <point x="426.0" y="1298.0"/>
      <point x="542.0" y="1430.0"/>
      <point x="749.0" y="1430.0" type="curve" smooth="yes"/>
      <point x="946.0" y="1430.0"/>
      <point x="983.0" y="1295.0"/>
      <point x="1013.0" y="1295.0" type="curve" smooth="yes"/>
      <point x="1039.0" y="1295.0"/>
      <point x="1060.0" y="1311.0"/>
      <point x="1060.0" y="1338.0" type="curve" smooth="yes"/>
      <point x="1060.0" y="1389.0"/>
      <point x="958.0" y="1450.0"/>
      <point x="768.0" y="1450.0" type="curve" smooth="yes"/>
      <point x="516.0" y="1450.0"/>
      <point x="374.0" y="1294.0"/>
      <point x="374.0" y="1130.0" type="curve" smooth="yes"/>
      <point x="374.0" y="818.0"/>
      <point x="858.0" y="880.0"/>
    </contour>
  </outline>
</glyph>
<glyph name="copyright" format="2">
  <advance width="1749"/>
  <unicode hex="00A9"/>
  <outline>
    <contour>
      <point x="889.0" y="294.0" type="curve" smooth="yes"/>
      <point x="716.0" y="294.0"/>
      <point x="592.0" y="402.0"/>
      <point x="592.0" y="609.0" type="curve" smooth="yes"/>
      <point x="592.0" y="896.0"/>
      <point x="756.0" y="1136.0"/>
      <point x="1062.0" y="1136.0" type="curve" smooth="yes"/>
      <point x="1154.0" y="1136.0"/>
      <point x="1226.0" y="1110.0"/>
      <point x="1293.0" y="1053.0" type="curve"/>
      <point x="1256.0" y="1113.0" type="line"/>
      <point x="1292.0" y="864.0" type="line"/>
      <point x="1309.0" y="867.0" type="line"/>
      <point x="1344.0" y="1185.0" type="line"/>
      <point x="1335.0" y="1185.0" type="line"/>
      <point x="1279.0" y="1122.0" type="line"/>
      <point x="1317.0" y="1122.0" type="line"/>
      <point x="1255.0" y="1153.0"/>
      <point x="1182.0" y="1167.0"/>
      <point x="1098.0" y="1167.0" type="curve" smooth="yes"/>
      <point x="725.0" y="1167.0"/>
      <point x="511.0" y="913.0"/>
      <point x="511.0" y="620.0" type="curve" smooth="yes"/>
      <point x="511.0" y="395.0"/>
      <point x="664.0" y="271.0"/>
      <point x="875.0" y="271.0" type="curve" smooth="yes"/>
      <point x="963.0" y="271.0"/>
      <point x="1061.0" y="290.0"/>
      <point x="1132.0" y="317.0" type="curve"/>
      <point x="1244.0" y="514.0" type="line"/>
      <point x="1227.0" y="514.0" type="line"/>
      <point x="1052.0" y="309.0" type="line"/>
      <point x="1120.0" y="348.0" type="line"/>
      <point x="1048.0" y="313.0"/>
      <point x="963.0" y="294.0"/>
    </contour>
    <contour>
      <point x="852.0" y="16.0" type="curve" smooth="yes"/>
      <point x="465.0" y="16.0"/>
      <point x="234.0" y="261.0"/>
      <point x="234.0" y="612.0" type="curve" smooth="yes"/>
      <point x="234.0" y="1043.0"/>
      <point x="553.0" y="1414.0"/>
      <point x="1020.0" y="1414.0" type="curve" smooth="yes"/>
      <point x="1407.0" y="1414.0"/>
      <point x="1638.0" y="1169.0"/>
      <point x="1638.0" y="818.0" type="curve" smooth="yes"/>
      <point x="1638.0" y="387.0"/>
      <point x="1319.0" y="16.0"/>
    </contour>
    <contour>
      <point x="1018.0" y="1450.0" type="curve" smooth="yes"/>
      <point x="524.0" y="1450.0"/>
      <point x="187.0" y="1067.0"/>
      <point x="187.0" y="609.0" type="curve" smooth="yes"/>
      <point x="187.0" y="241.0"/>
      <point x="430.0" y="-20.0"/>
      <point x="854.0" y="-20.0" type="curve" smooth="yes"/>
      <point x="1348.0" y="-20.0"/>
      <point x="1685.0" y="363.0"/>
      <point x="1685.0" y="821.0" type="curve" smooth="yes"/>
      <point x="1685.0" y="1189.0"/>
      <point x="1442.0" y="1450.0"/>
    </contour>
  </outline>
</glyph>
<glyph name="registered" format="2">
  <advance width="1108"/>
  <unicode hex="00AE"/>
  <outline>
    <contour>
      <point x="886.0" y="830.0" type="line"/>
      <point x="852.0" y="829.0"/>
      <point x="848.0" y="834.0"/>
      <point x="839.0" y="874.0" type="curve" smooth="yes"/>
      <point x="818.0" y="970.0" type="line" smooth="yes"/>
      <point x="807.0" y="1021.0"/>
      <point x="793.0" y="1039.0"/>
      <point x="745.0" y="1039.0" type="curve"/>
      <point x="751.0" y="1038.0" type="line"/>
      <point x="826.0" y="1045.0"/>
      <point x="887.0" y="1081.0"/>
      <point x="895.0" y="1140.0" type="curve" smooth="yes"/>
      <point x="903.0" y="1195.0"/>
      <point x="875.0" y="1244.0"/>
      <point x="774.0" y="1244.0" type="curve" smooth="yes"/>
      <point x="682.0" y="1244.0" type="line"/>
      <point x="676.0" y="1221.0" type="line"/>
      <point x="757.0" y="1221.0" type="line" smooth="yes"/>
      <point x="824.0" y="1221.0"/>
      <point x="851.0" y="1193.0"/>
      <point x="846.0" y="1140.0" type="curve" smooth="yes"/>
      <point x="839.0" y="1072.0"/>
      <point x="777.0" y="1049.0"/>
      <point x="714.0" y="1049.0" type="curve" smooth="yes"/>
      <point x="626.0" y="1049.0" type="line"/>
      <point x="618.0" y="1026.0" type="line"/>
      <point x="723.0" y="1026.0" type="line" smooth="yes"/>
      <point x="753.0" y="1026.0"/>
      <point x="764.0" y="1016.0"/>
      <point x="774.0" y="971.0" type="curve" smooth="yes"/>
      <point x="794.0" y="879.0" type="line" smooth="yes"/>
      <point x="807.0" y="819.0"/>
      <point x="806.0" y="814.0"/>
      <point x="882.0" y="817.0" type="curve"/>
    </contour>
    <contour>
      <point x="709.0" y="1244.0" type="line"/>
      <point x="593.0" y="1244.0" type="line"/>
      <point x="590.0" y="1235.0" type="line"/>
      <point x="654.0" y="1221.0" type="line"/>
      <point x="538.0" y="841.0" type="line"/>
      <point x="465.0" y="827.0" type="line"/>
      <point x="462.0" y="818.0" type="line"/>
      <point x="645.0" y="818.0" type="line"/>
      <point x="648.0" y="827.0" type="line"/>
      <point x="586.0" y="841.0" type="line"/>
    </contour>
    <contour>
      <point x="660.0" y="629.0" type="curve" smooth="yes"/>
      <point x="427.0" y="629.0"/>
      <point x="311.0" y="786.0"/>
      <point x="311.0" y="974.0" type="curve" smooth="yes"/>
      <point x="311.0" y="1214.0"/>
      <point x="489.0" y="1417.0"/>
      <point x="750.0" y="1417.0" type="curve" smooth="yes"/>
      <point x="983.0" y="1417.0"/>
      <point x="1099.0" y="1260.0"/>
      <point x="1099.0" y="1072.0" type="curve" smooth="yes"/>
      <point x="1099.0" y="832.0"/>
      <point x="921.0" y="629.0"/>
    </contour>
    <contour>
      <point x="754.0" y="1450.0" type="curve" smooth="yes"/>
      <point x="469.0" y="1450.0"/>
      <point x="273.0" y="1233.0"/>
      <point x="273.0" y="974.0" type="curve" smooth="yes"/>
      <point x="273.0" y="754.0"/>
      <point x="412.0" y="596.0"/>
      <point x="656.0" y="596.0" type="curve" smooth="yes"/>
      <point x="941.0" y="596.0"/>
      <point x="1137.0" y="813.0"/>
      <point x="1137.0" y="1072.0" type="curve" smooth="yes"/>
      <point x="1137.0" y="1292.0"/>
      <point x="998.0" y="1450.0"/>
    </contour>
  </outline>
</glyph>
<glyph name="uni00B2" format="2">
  <advance width="615"/>
  <unicode hex="00B2"/>
  <outline>
    <contour>
      <point x="499.0" y="687.0" type="line"/>
      <point x="567.0" y="724.0" type="line"/>
      <point x="195.0" y="724.0" type="line"/>
      <point x="168.0" y="686.0" type="line"/>
      <point x="451.0" y="924.0" type="line" smooth="yes"/>
      <point x="685.0" y="1120.0"/>
      <point x="713.0" y="1203.0"/>
      <point x="713.0" y="1280.0" type="curve" smooth="yes"/>
      <point x="713.0" y="1375.0"/>
      <point x="645.0" y="1440.0"/>
      <point x="533.0" y="1440.0" type="curve" smooth="yes"/>
      <point x="407.0" y="1440.0"/>
      <point x="314.0" y="1360.0"/>
      <point x="265.0" y="1202.0" type="curve"/>
      <point x="282.0" y="1198.0" type="line"/>
      <point x="321.0" y="1316.0"/>
      <point x="390.0" y="1383.0"/>
      <point x="509.0" y="1383.0" type="curve" smooth="yes"/>
      <point x="588.0" y="1383.0"/>
      <point x="641.0" y="1339.0"/>
      <point x="641.0" y="1262.0" type="curve" smooth="yes"/>
      <point x="641.0" y="1175.0"/>
      <point x="591.0" y="1090.0"/>
      <point x="411.0" y="927.0" type="curve" smooth="yes"/>
      <point x="128.0" y="671.0" type="line"/>
      <point x="125.0" y="662.0" type="line"/>
      <point x="516.0" y="662.0" type="line"/>
      <point x="544.0" y="639.0" type="line"/>
      <point x="548.0" y="639.0" type="line"/>
      <point x="671.0" y="852.0" type="line"/>
      <point x="661.0" y="852.0" type="line"/>
    </contour>
  </outline>
</glyph>
<glyph name="ordmasculine" format="2">
  <advance width="800"/>
  <unicode hex="00BA"/>
  <outline>
    <contour>
      <point x="168.0" y="577.0" type="line"/>
      <point x="671.0" y="577.0" type="line"/>
      <point x="685.0" y="622.0" type="line"/>
      <point x="181.0" y="622.0" type="line"/>
    </contour>
    <contour>
      <point x="673.0" y="1450.0" type="curve" smooth="yes"/>
      <point x="484.0" y="1450.0"/>
      <point x="309.0" y="1248.0"/>
      <point x="309.0" y="1021.0" type="curve" smooth="yes"/>
      <point x="309.0" y="874.0"/>
      <point x="378.0" y="790.0"/>
      <point x="502.0" y="790.0" type="curve" smooth="yes"/>
      <point x="691.0" y="790.0"/>
      <point x="866.0" y="992.0"/>
      <point x="866.0" y="1219.0" type="curve" smooth="yes"/>
      <point x="866.0" y="1366.0"/>
      <point x="797.0" y="1450.0"/>
    </contour>
    <contour>
      <point x="495.0" y="811.0" type="curve" smooth="yes"/>
      <point x="418.0" y="811.0"/>
      <point x="372.0" y="866.0"/>
      <point x="372.0" y="1005.0" type="curve" smooth="yes"/>
      <point x="372.0" y="1219.0"/>
      <point x="528.0" y="1429.0"/>
      <point x="680.0" y="1429.0" type="curve" smooth="yes"/>
      <point x="757.0" y="1429.0"/>
      <point x="803.0" y="1374.0"/>
      <point x="803.0" y="1235.0" type="curve" smooth="yes"/>
      <point x="803.0" y="1021.0"/>
      <point x="647.0" y="811.0"/>
    </contour>
  </outline>
</glyph>
<glyph name="guillemotright" format="2">
  <advance width="879"/>
  <unicode hex="00BB"/>
  <outline>
    <contour>
      <point x="402.0" y="493.0" type="line"/>
      <point x="431.0" y="589.0" type="line"/>
      <point x="-6.0" y="129.0" type="line"/>
      <point x="7.0" y="114.0" type="line"/>
      <point x="481.0" y="517.0" type="line"/>
      <point x="484.0" y="527.0" type="line"/>
      <point x="250.0" y="930.0" type="line"/>
      <point x="235.0" y="924.0" type="line"/>
    </contour>
    <contour>
      <point x="698.0" y="493.0" type="line"/>
      <point x="727.0" y="589.0" type="line"/>
      <point x="290.0" y="129.0" type="line"/>
      <point x="303.0" y="114.0" type="line"/>
      <point x="777.0" y="517.0" type="line"/>
      <point x="780.0" y="527.0" type="line"/>
      <point x="546.0" y="930.0" type="line"/>
      <point x="531.0" y="924.0" type="line"/>
    </contour>
  </outline>
</glyph>
<glyph name="Ccedilla" format="2">
  <advance width="1377"/>
  <unicode hex="00C7"/>
  <outline>
    <contour>
      <point x="1100.0" y="99.0" type="line"/>
      <point x="998.0" y="38.0"/>
      <point x="870.0" y="5.0"/>
      <point x="754.0" y="5.0" type="curve" smooth="yes"/>
      <point x="452.0" y="5.0"/>
      <point x="235.0" y="206.0"/>
      <point x="235.0" y="555.0" type="curve" smooth="yes"/>
      <point x="235.0" y="1107.0"/>
      <point x="598.0" y="1418.0"/>
      <point x="1014.0" y="1418.0" type="curve" smooth="yes"/>
      <point x="1168.0" y="1418.0"/>
      <point x="1292.0" y="1385.0"/>
      <point x="1398.0" y="1294.0" type="curve"/>
      <point x="1330.0" y="1362.0" type="line"/>
      <point x="1377.0" y="1021.0" type="line"/>
      <point x="1394.0" y="1021.0" type="line"/>
      <point x="1427.0" y="1479.0" type="line"/>
      <point x="1423.0" y="1479.0" type="line"/>
      <point x="1338.0" y="1381.0" type="line"/>
      <point x="1413.0" y="1385.0" type="line"/>
      <point x="1316.0" y="1427.0"/>
      <point x="1206.0" y="1450.0"/>
      <point x="1055.0" y="1450.0" type="curve" smooth="yes"/>
      <point x="571.0" y="1450.0"/>
      <point x="155.0" y="1106.0"/>
      <point x="155.0" y="559.0" type="curve" smooth="yes"/>
      <point x="155.0" y="215.0"/>
      <point x="372.0" y="-20.0"/>
      <point x="753.0" y="-20.0" type="curve" smooth="yes"/>
      <point x="869.0" y="-20.0"/>
      <point x="1023.0" y="2.0"/>
      <point x="1134.0" y="46.0" type="curve"/>
      <point x="1287.0" y="346.0" type="line"/>
      <point x="1270.0" y="346.0" type="line"/>
      <point x="1042.0" y="44.0" type="line"/>
    </contour>
    <contour>
      <point x="550.0" y="-434.0" type="curve" smooth="yes"/>
      <point x="477.0" y="-434.0"/>
      <point x="459.0" y="-373.0"/>
      <point x="444.0" y="-373.0" type="curve" smooth="yes"/>
      <point x="420.0" y="-373.0"/>
      <point x="404.0" y="-391.0"/>
      <point x="404.0" y="-412.0" type="curve" smooth="yes"/>
      <point x="404.0" y="-441.0"/>
      <point x="428.0" y="-465.0"/>
      <point x="497.0" y="-465.0" type="curve" smooth="yes"/>
      <point x="634.0" y="-465.0"/>
      <point x="732.0" y="-381.0"/>
      <point x="732.0" y="-278.0" type="curve" smooth="yes"/>
      <point x="732.0" y="-227.0"/>
      <point x="699.0" y="-176.0"/>
      <point x="585.0" y="-134.0" type="curve"/>
      <point x="585.0" y="-151.0" type="line"/>
      <point x="721.0" y="0.0" type="line"/>
      <point x="694.0" y="0.0" type="line"/>
      <point x="529.0" y="-177.0" type="line"/>
      <point x="529.0" y="-181.0" type="line"/>
      <point x="643.0" y="-219.0"/>
      <point x="681.0" y="-262.0"/>
      <point x="681.0" y="-310.0" type="curve" smooth="yes"/>
      <point x="681.0" y="-377.0"/>
      <point x="620.0" y="-434.0"/>
    </contour>
  </outline>
</glyph>
<glyph name="multiply" format="2">
  <advance width="1150"/>
  <unicode hex="00D7"/>
  <outline>
    <contour>
      <point x="137.0" y="205.0" type="line"/>
      <point x="161.0" y="171.0" type="line"/>
      <point x="1013.0" y="819.0" type="line"/>
      <point x="989.0" y="853.0" type="line"/>
    </contour>
    <contour>
      <point x="336.0" y="827.0" type="line"/>
      <point x="781.0" y="171.0" type="line"/>
      <point x="814.0" y="197.0" type="line"/>
      <point x="369.0" y="853.0" type="line"/>
    </contour>
  </outline>
</glyph>
<glyph name="germandbls" format="2">
  <advance width="1000"/>
  <unicode hex="00DF"/>
  <outline>
    <contour>
      <point x="140.0" y="1024.0" type="line"/>
      <point x="134.0" y="997.0" type="line"/>
      <point x="376.0" y="997.0" type="line"/>
      <point x="382.0" y="1024.0" type="line"/>
    </contour>
    <contour>
      <point x="258" y="341" type="curve" smooth="yes"/>
      <point x="430" y="1018" type="line" smooth="yes"/>
      <point x="517" y="1360"/>
      <point x="626" y="1461"/>
      <point x="779" y="1461" type="curve" smooth="yes"/>
      <point x="881" y="1461"/>
      <point x="931" y="1397"/>
      <point x="931" y="1312" type="curve" smooth="yes"/>
      <point x="931.0" y="1200.0"/>
      <point x="889.0" y="1119.0"/>
      <point x="762" y="1009" type="curve" smooth="yes"/>
      <point x="635" y="899"/>
      <point x="604.0" y="837.0"/>
      <point x="604" y="749" type="curve" smooth="yes"/>
      <point x="604" y="680"/>
      <point x="634" y="609"/>
      <point x="716" y="500" type="curve" smooth="yes"/>
      <point x="798" y="391"/>
      <point x="820" y="334"/>
      <point x="820" y="270" type="curve" smooth="yes"/>
      <point x="820" y="123"/>
      <point x="702" y="29"/>
      <point x="568" y="29" type="curve" smooth="yes"/>
      <point x="540" y="29"/>
      <point x="521" y="33"/>
      <point x="509" y="49" type="curve" smooth="yes"/>
      <point x="497" y="65"/>
      <point x="492" y="96"/>
      <point x="496" y="145" type="curve"/>
      <point x="419" y="145"/>
      <point x="389" y="115"/>
      <point x="389" y="72" type="curve" smooth="yes"/>
      <point x="389" y="14"/>
      <point x="424" y="-20"/>
      <point x="515" y="-20" type="curve" smooth="yes"/>
      <point x="704" y="-20"/>
      <point x="876" y="135"/>
      <point x="876" y="317" type="curve" smooth="yes"/>
      <point x="876" y="389"/>
      <point x="852" y="447"/>
      <point x="768" y="557" type="curve" smooth="yes"/>
      <point x="684" y="667"/>
      <point x="664" y="723"/>
      <point x="664" y="790" type="curve" smooth="yes"/>
      <point x="664.0" y="870.0"/>
      <point x="695" y="927"/>
      <point x="831" y="1035" type="curve" smooth="yes"/>
      <point x="967.0" y="1143.0"/>
      <point x="1002.0" y="1215.0"/>
      <point x="1002" y="1311" type="curve" smooth="yes"/>
      <point x="1002" y="1404"/>
      <point x="929" y="1484"/>
      <point x="786" y="1484" type="curve" smooth="yes"/>
      <point x="601" y="1484"/>
      <point x="436" y="1351"/>
      <point x="339" y="955" type="curve" smooth="yes"/>
      <point x="161" y="231" type="line" smooth="yes"/>
      <point x="21" y="-337"/>
      <point x="-65" y="-441"/>
      <point x="-174" y="-441" type="curve" smooth="yes"/>
      <point x="-208" y="-441"/>
      <point x="-219" y="-423"/>
      <point x="-202" y="-364" type="curve" smooth="yes"/>
      <point x="-185" y="-305"/>
      <point x="-194" y="-283"/>
      <point x="-232" y="-283" type="curve" smooth="yes"/>
      <point x="-279" y="-283"/>
      <point x="-306" y="-320"/>
      <point x="-306" y="-364" type="curve" smooth="yes"/>
      <point x="-306" y="-419"/>
      <point x="-267" y="-465"/>
      <point x="-185" y="-465" type="curve" smooth="yes"/>
      <point x="-33" y="-465"/>
      <point x="87" y="-330"/>
    </contour>
  </outline>
</glyph>
<glyph name="eogonek" format="2">
  <advance width="788"/>
  <unicode hex="0119"/>
  <outline>
    <contour>
      <point x="569" y="149" type="line" smooth="yes"/>
      <point x="610" y="209"/>
      <point x="649" y="291"/>
      <point x="691" y="395" type="curve"/>
      <point x="682" y="398" type="line"/>
      <point x="542" y="128"/>
      <point x="449" y="47"/>
      <point x="299" y="47" type="curve" smooth="yes"/>
      <point x="186" y="47"/>
      <point x="126" y="108"/>
      <point x="126" y="295" type="curve" smooth="yes"/>
      <point x="126" y="693"/>
      <point x="381" y="1020"/>
      <point x="609" y="1020" type="curve" smooth="yes"/>
      <point x="725" y="1020"/>
      <point x="770" y="917"/>
      <point x="703" y="804" type="curve"/>
      <point x="641" y="751"/>
      <point x="466" y="666"/>
      <point x="127" y="544" type="curve"/>
      <point x="130" y="530" type="line"/>
      <point x="329" y="588"/>
      <point x="634" y="703"/>
      <point x="762" y="773" type="curve"/>
      <point x="795" y="811"/>
      <point x="811" y="857"/>
      <point x="811" y="922" type="curve" smooth="yes"/>
      <point x="811" y="986"/>
      <point x="755" y="1044"/>
      <point x="642" y="1044" type="curve" smooth="yes"/>
      <point x="332" y="1044"/>
      <point x="50" y="694"/>
      <point x="50" y="246" type="curve" smooth="yes"/>
      <point x="50" y="58"/>
      <point x="142" y="-20"/>
      <point x="287" y="-20" type="curve" smooth="yes"/>
      <point x="369" y="-20"/>
      <point x="438" y="4"/>
      <point x="502" y="67" type="curve"/>
      <point x="496" y="72" type="line"/>
      <point x="399" y="-53" type="line" smooth="yes"/>
      <point x="257" y="-236"/>
      <point x="238" y="-302"/>
      <point x="238" y="-364" type="curve" smooth="yes"/>
      <point x="238" y="-422"/>
      <point x="280" y="-465"/>
      <point x="355" y="-465" type="curve" smooth="yes"/>
      <point x="415" y="-465"/>
      <point x="455" y="-434"/>
      <point x="513" y="-359" type="curve"/>
      <point x="505" y="-351" type="line"/>
      <point x="462" y="-395"/>
      <point x="422" y="-414"/>
      <point x="384" y="-414" type="curve" smooth="yes"/>
      <point x="326" y="-414"/>
      <point x="299" y="-388"/>
      <point x="299" y="-336" type="curve" smooth="yes"/>
      <point x="299" y="-283"/>
      <point x="308" y="-229"/>
      <point x="428" y="-55" type="curve" smooth="yes"/>
    </contour>
  </outline>
</glyph>
<glyph name="Hbar" format="2">
  <advance width="1478"/>
  <unicode hex="0126"/>
  <outline>
    <contour>
      <point x="326.0" y="729.0" type="line"/>
      <point x="1283.0" y="729.0" type="line"/>
      <point x="1292.0" y="757.0" type="line"/>
      <point x="335.0" y="757.0" type="line"/>
    </contour>
    <contour>
      <point x="236.0" y="1061.0" type="line"/>
      <point x="1575.0" y="1061.0" type="line"/>
      <point x="1591.0" y="1113.0" type="line"/>
      <point x="252.0" y="1113.0" type="line"/>
    </contour>
    <contour>
      <point x="513.0" y="1394.0" type="line"/>
      <point x="99.0" y="36.0" type="line"/>
      <point x="-80.0" y="12.0" type="line"/>
      <point x="-83.0" y="0.0" type="line"/>
      <point x="342.0" y="0.0" type="line"/>
      <point x="346.0" y="12.0" type="line"/>
      <point x="175.0" y="36.0" type="line"/>
      <point x="590.0" y="1394.0" type="line"/>
      <point x="768.0" y="1418.0" type="line"/>
      <point x="772.0" y="1430.0" type="line"/>
      <point x="346.0" y="1430.0" type="line"/>
      <point x="342.0" y="1418.0" type="line"/>
    </contour>
    <contour>
      <point x="1426.0" y="1394.0" type="line"/>
      <point x="1012.0" y="36.0" type="line"/>
      <point x="833.0" y="12.0" type="line"/>
      <point x="830.0" y="0.0" type="line"/>
      <point x="1255.0" y="0.0" type="line"/>
      <point x="1259.0" y="12.0" type="line"/>
      <point x="1088.0" y="36.0" type="line"/>
      <point x="1503.0" y="1394.0" type="line"/>
      <point x="1681.0" y="1418.0" type="line"/>
      <point x="1685.0" y="1430.0" type="line"/>
      <point x="1259.0" y="1430.0" type="line"/>
      <point x="1255.0" y="1418.0" type="line"/>
    </contour>
  </outline>
</glyph>
<glyph name="hbar" format="2">
  <advance width="955"/>
  <unicode hex="0127"/>
  <outline>
    <contour>
      <point x="227.0" y="520.0" type="line"/>
      <point x="320.0" y="713.0"/>
      <point x="484.0" y="983.0"/>
      <point x="705.0" y="983.0" type="curve" smooth="yes"/>
      <point x="764.0" y="983.0"/>
      <point x="818.0" y="960.0"/>
      <point x="818.0" y="892.0" type="curve" smooth="yes"/>
      <point x="818.0" y="861.0"/>
      <point x="806.0" y="814.0"/>
      <point x="757.0" y="696.0" type="curve" smooth="yes"/>
      <point x="500.0" y="73.0" type="line" smooth="yes"/>
      <point x="476.0" y="15.0"/>
      <point x="476.0" y="-20.0"/>
      <point x="532.0" y="-20.0" type="curve" smooth="yes"/>
      <point x="625.0" y="-20.0"/>
      <point x="720.0" y="39.0"/>
      <point x="899.0" y="290.0" type="curve"/>
      <point x="892.0" y="295.0" type="line"/>
      <point x="715.0" y="81.0"/>
      <point x="577.0" y="26.0"/>
      <point x="519.0" y="49.0" type="curve"/>
      <point x="545.0" y="6.0" type="line"/>
      <point x="837.0" y="715.0" type="line" smooth="yes"/>
      <point x="886.0" y="834.0"/>
      <point x="896.0" y="874.0"/>
      <point x="896.0" y="917.0" type="curve" smooth="yes"/>
      <point x="896.0" y="991.0"/>
      <point x="835.0" y="1044.0"/>
      <point x="727.0" y="1044.0" type="curve" smooth="yes"/>
      <point x="502.0" y="1044.0"/>
      <point x="334.0" y="802.0"/>
      <point x="216.0" y="516.0" type="curve"/>
      <point x="236.0" y="553.0" type="line"/>
      <point x="537.0" y="1484.0" type="line"/>
      <point x="524.0" y="1484.0" type="line"/>
      <point x="256.0" y="1436.0" type="line"/>
      <point x="251.0" y="1422.0" type="line"/>
      <point x="308.0" y="1412.1405405405405"/>
      <point x="400.0" y="1396.227027027027"/>
      <point x="436.0" y="1390.0" type="curve"/>
      <point x="-16.0" y="0.0" type="line"/>
      <point x="54.0" y="0.0" type="line"/>
    </contour>
    <contour>
      <point x="171.0" y="1185.0" type="line"/>
      <point x="716.0" y="1185.0" type="line"/>
      <point x="732.0" y="1237.0" type="line"/>
      <point x="187.0" y="1237.0" type="line"/>
    </contour>
  </outline>
</glyph>
<glyph name="iogonek" format="2">
  <advance width="529"/>
  <unicode hex="012F"/>
  <outline>
    <contour>
      <point x="466.0" y="1409.0" type="curve" smooth="yes"/>
      <point x="466.0" y="1372.0"/>
      <point x="492.0" y="1338.0"/>
      <point x="537.0" y="1338.0" type="curve" smooth="yes"/>
      <point x="582.0" y="1338.0"/>
      <point x="608.0" y="1372.0"/>
      <point x="608.0" y="1409.0" type="curve" smooth="yes"/>
      <point x="608.0" y="1446.0"/>
      <point x="582.0" y="1480.0"/>
      <point x="537.0" y="1480.0" type="curve" smooth="yes"/>
      <point x="492.0" y="1480.0"/>
      <point x="466.0" y="1446.0"/>
    </contour>
    <contour>
      <point x="285.0" y="60.0" type="line" smooth="yes"/>
      <point x="351.0" y="122.0"/>
      <point x="400.0" y="181.0"/>
      <point x="478.0" y="290.0" type="curve"/>
      <point x="471.0" y="295.0" type="line"/>
      <point x="294.0" y="81.0"/>
      <point x="156.0" y="26.0"/>
      <point x="98.0" y="49.0" type="curve"/>
      <point x="124.0" y="6.0" type="line"/>
      <point x="465.0" y="983.0" type="line" smooth="yes"/>
      <point x="480.0" y="1027.0"/>
      <point x="467.0" y="1044.0"/>
      <point x="427.0" y="1044.0" type="curve" smooth="yes"/>
      <point x="330.0" y="1044.0"/>
      <point x="214.0" y="965.0"/>
      <point x="65.0" y="732.0" type="curve"/>
      <point x="72.0" y="726.0" type="line"/>
      <point x="257.0" y="953.0"/>
      <point x="380.0" y="1001.0"/>
      <point x="438.0" y="978.0" type="curve"/>
      <point x="410.0" y="1027.0" type="line"/>
      <point x="83.0" y="74.0" type="line" smooth="yes"/>
      <point x="63.0" y="15.0"/>
      <point x="55.0" y="-20.0"/>
      <point x="111.0" y="-20.0" type="curve" smooth="yes"/>
      <point x="149.0" y="-20.0"/>
      <point x="187.0" y="-10.0"/>
      <point x="231.0" y="18.0" type="curve"/>
      <point x="227.0" y="23.0" type="line"/>
      <point x="72.0" y="-117.0" type="line" smooth="yes"/>
      <point x="-63.0" y="-239.0"/>
      <point x="-89.0" y="-302.0"/>
      <point x="-89.0" y="-357.0" type="curve" smooth="yes"/>
      <point x="-89.0" y="-421.0"/>
      <point x="-56.0" y="-465.0"/>
      <point x="22.0" y="-465.0" type="curve" smooth="yes"/>
      <point x="82.0" y="-465.0"/>
      <point x="122.0" y="-434.0"/>
      <point x="180.0" y="-359.0" type="curve"/>
      <point x="172.0" y="-351.0" type="line"/>
      <point x="129.0" y="-395.0"/>
      <point x="89.0" y="-414.0"/>
      <point x="51.0" y="-414.0" type="curve" smooth="yes"/>
      <point x="-7.0" y="-414.0"/>
      <point x="-28.0" y="-379.0"/>
      <point x="-28.0" y="-338.0" type="curve" smooth="yes"/>
      <point x="-28.0" y="-290.0"/>
      <point x="-9.0" y="-221.0"/>
      <point x="136.0" y="-82.0" type="curve" smooth="yes"/>
    </contour>
  </outline>
</glyph>
<glyph name="kgreenlandic" format="2">
  <advance width="965"/>
  <unicode hex="0138"/>
  <outline>
    <contour>
      <point x="481.0" y="1015.0" type="line"/>
      <point x="458.0" y="1029.0"/>
      <point x="431.0" y="1037.0"/>
      <point x="395.0" y="1037.0" type="curve" smooth="yes"/>
      <point x="300.0" y="1037.0"/>
      <point x="192.0" y="969.0"/>
      <point x="51.0" y="639.0" type="curve"/>
      <point x="60.0" y="635.0" type="line"/>
      <point x="214.0" y="929.0"/>
      <point x="311.0" y="967.0"/>
      <point x="352.0" y="967.0" type="curve" smooth="yes"/>
      <point x="379.0" y="967.0"/>
      <point x="392.0" y="953.0"/>
      <point x="378.0" y="910.0" type="curve"/>
      <point x="82.0" y="0.0" type="line"/>
      <point x="152.0" y="0.0" type="line"/>
    </contour>
    <contour>
      <point x="966" y="865" type="curve" smooth="yes"/>
      <point x="1011" y="865"/>
      <point x="1050" y="910"/>
      <point x="1050" y="965" type="curve" smooth="yes"/>
      <point x="1050" y="1011"/>
      <point x="1023" y="1044"/>
      <point x="952" y="1044" type="curve" smooth="yes"/>
      <point x="831.0" y="1044.0"/>
      <point x="605" y="923"/>
      <point x="353.0" y="621.0" type="curve"/>
      <point x="350.0" y="612.0" type="line"/>
      <point x="509" y="65"/>
      <point x="572" y="-20"/>
      <point x="639.0" y="-20.0" type="curve" smooth="yes"/>
      <point x="695" y="-20.0"/>
      <point x="770" y="37"/>
      <point x="911.0" y="277.0" type="curve"/>
      <point x="904.0" y="282.0" type="line"/>
      <point x="787.0" y="111.0"/>
      <point x="711" y="46"/>
      <point x="666.0" y="46.0" type="curve" smooth="yes"/>
      <point x="625.0" y="46"/>
      <point x="546.0" y="180.0"/>
      <point x="403.0" y="673.0" type="curve"/>
      <point x="376.0" y="620.0" type="line"/>
      <point x="590.0" y="869"/>
      <point x="795.0" y="983.0"/>
      <point x="890.0" y="983.0" type="curve" smooth="yes"/>
      <point x="912" y="983"/>
      <point x="919" y="972"/>
      <point x="917" y="928" type="curve" smooth="yes"/>
      <point x="915" y="884"/>
      <point x="928.0" y="865.0"/>
    </contour>
  </outline>
</glyph>
<glyph name="Lslash" format="2">
  <advance width="1145"/>
  <unicode hex="0141"/>
  <outline>
    <contour>
      <point x="618.0" y="1394.0" type="line"/>
      <point x="796.0" y="1418.0" type="line"/>
      <point x="800.0" y="1430.0" type="line"/>
      <point x="374.0" y="1430.0" type="line"/>
      <point x="370.0" y="1418.0" type="line"/>
      <point x="541.0" y="1394.0" type="line"/>
      <point x="127.0" y="36.0" type="line"/>
      <point x="-52.0" y="12.0" type="line"/>
      <point x="-55.0" y="0.0" type="line"/>
      <point x="192.0" y="0.0" type="line"/>
    </contour>
    <contour>
      <point x="791.0" y="17.0" type="line"/>
      <point x="841.0" y="28.0" type="line"/>
      <point x="165.0" y="28.0" type="line"/>
      <point x="156.0" y="0.0" type="line"/>
      <point x="799.0" y="0.0" type="line"/>
      <point x="845.0" y="-49.0" type="line"/>
      <point x="851.0" y="-49.0" type="line"/>
      <point x="1079.0" y="368.0" type="line"/>
      <point x="1068.0" y="375.0" type="line"/>
    </contour>
    <contour>
      <point x="796.0" y="917.0" type="line"/>
      <point x="377.0" y="719.0" type="line"/>
      <point x="345.0" y="712.0" type="line"/>
      <point x="112.0" y="603.0" type="line"/>
      <point x="93.0" y="539.0" type="line"/>
      <point x="326.0" y="648.0" type="line"/>
      <point x="357.0" y="655.0" type="line"/>
      <point x="776.0" y="853.0" type="line"/>
    </contour>
  </outline>
</glyph>
<glyph name="Eng" format="2">
  <advance width="1473"/>
  <unicode hex="014A"/>
  <outline>
    <contour>
      <point x="1098.0" y="85.0" type="line"/>
      <point x="584.0" y="1430.0" type="line"/>
      <point x="349.0" y="1430.0" type="line"/>
      <point x="345.0" y="1418.0" type="line"/>
      <point x="509.0" y="1391.0" type="line"/>
      <point x="96.0" y="36.0" type="line"/>
      <point x="-82.0" y="12.0" type="line"/>
      <point x="-86.0" y="0.0" type="line"/>
      <point x="296.0" y="0.0" type="line"/>
      <point x="300.0" y="12.0" type="line"/>
      <point x="129.0" y="36.0" type="line"/>
      <point x="546.0" y="1404.0" type="line"/>
      <point x="525.0" y="1389.0" type="line"/>
      <point x="1064.0" y="-20.0" type="line"/>
    </contour>
    <contour>
      <point x="1082.0" y="-18.0" type="curve" smooth="yes"/>
      <point x="1512.0" y="1394.0" type="line"/>
      <point x="1690.0" y="1418.0" type="line"/>
      <point x="1694.0" y="1430.0" type="line"/>
      <point x="1312.0" y="1430.0" type="line"/>
      <point x="1308.0" y="1418.0" type="line"/>
      <point x="1479.0" y="1394.0" type="line"/>
      <point x="1054.0" y="1.0" type="line" smooth="yes"/>
      <point x="954.0" y="-328.0"/>
      <point x="819.0" y="-412.0"/>
      <point x="675.0" y="-412.0" type="curve" smooth="yes"/>
      <point x="614.0" y="-412.0"/>
      <point x="572.0" y="-380.0"/>
      <point x="554.0" y="-380.0" type="curve" smooth="yes"/>
      <point x="531.0" y="-380.0"/>
      <point x="518.0" y="-396.0"/>
      <point x="518.0" y="-419.0" type="curve" smooth="yes"/>
      <point x="518.0" y="-448.0"/>
      <point x="544.0" y="-465.0"/>
      <point x="615.0" y="-465.0" type="curve" smooth="yes"/>
      <point x="829.0" y="-465.0"/>
      <point x="982.0" y="-346.0"/>
    </contour>
  </outline>
</glyph>
<glyph name="oe" format="2">
  <advance width="1413"/>
  <unicode hex="0153"/>
  <anchor x="886.0" y="1024.0" name="top"/>
  <anchor x="573.0" y="0" name="bottom"/>
  <outline>
    <contour>
      <point x="611.0" y="1044.0" type="curve" smooth="yes"/>
      <point x="316.0" y="1044.0"/>
      <point x="50.0" y="668.0"/>
      <point x="50.0" y="271.0" type="curve" smooth="yes"/>
      <point x="50.0" y="78.0"/>
      <point x="125.0" y="-20.0"/>
      <point x="268.0" y="-20.0" type="curve" smooth="yes"/>
      <point x="445.0" y="-20.0"/>
      <point x="614.0" y="125.0"/>
      <point x="719.0" y="319.0" type="curve"/>
      <point x="693.0" y="319.0" type="line"/>
      <point x="682.0" y="84.0"/>
      <point x="764.0" y="-20.0"/>
      <point x="926.0" y="-20.0" type="curve" smooth="yes"/>
      <point x="1060.0" y="-20.0"/>
      <point x="1180.0" y="55.0"/>
      <point x="1316.0" y="395.0" type="curve"/>
      <point x="1307.0" y="398.0" type="line"/>
      <point x="1152.0" y="87.0"/>
      <point x="1041.0" y="43.0"/>
      <point x="937.0" y="43.0" type="curve" smooth="yes"/>
      <point x="823.0" y="43.0"/>
      <point x="763.0" y="105.0"/>
      <point x="763.0" y="292.0" type="curve" smooth="yes"/>
      <point x="763.0" y="692.0"/>
      <point x="1005.0" y="1016.0"/>
      <point x="1239.0" y="1016.0" type="curve" smooth="yes"/>
      <point x="1361.0" y="1016.0"/>
      <point x="1390.0" y="907.0"/>
      <point x="1328.0" y="804.0" type="curve"/>
      <point x="1266.0" y="751.0"/>
      <point x="1105.0" y="666.0"/>
      <point x="766.0" y="544.0" type="curve"/>
      <point x="769.0" y="530.0" type="line"/>
      <point x="968.0" y="588.0"/>
      <point x="1259.0" y="703.0"/>
      <point x="1387.0" y="773.0" type="curve"/>
      <point x="1430.0" y="827.0"/>
      <point x="1438.0" y="881.0"/>
      <point x="1436.0" y="924.0" type="curve" smooth="yes"/>
      <point x="1433.0" y="991.0"/>
      <point x="1380.0" y="1044.0"/>
      <point x="1267.0" y="1044.0" type="curve" smooth="yes"/>
      <point x="1076.0" y="1044.0"/>
      <point x="890.0" y="911.0"/>
      <point x="783.0" y="704.0" type="curve"/>
      <point x="817.0" y="704.0" type="line"/>
      <point x="829.0" y="902.0"/>
      <point x="783.0" y="1044.0"/>
    </contour>
    <contour>
      <point x="268.0" y="2.0" type="curve" smooth="yes"/>
      <point x="171.0" y="2.0"/>
      <point x="125.0" y="74.0"/>
      <point x="125.0" y="242.0" type="curve" smooth="yes"/>
      <point x="125.0" y="609.0"/>
      <point x="366.0" y="1022.0"/>
      <point x="611.0" y="1022.0" type="curve" smooth="yes"/>
      <point x="708.0" y="1022.0"/>
      <point x="754.0" y="950.0"/>
      <point x="754.0" y="782.0" type="curve" smooth="yes"/>
      <point x="754.0" y="415.0"/>
      <point x="513.0" y="2.0"/>
    </contour>
  </outline>
</glyph>
<glyph name="scedilla" format="2">
  <advance width="642"/>
  <unicode hex="015F"/>
  <outline>
    <contour>
      <point x="17" y="-465" type="curve" smooth="yes"/>
      <point x="154" y="-465"/>
      <point x="252" y="-381"/>
      <point x="252" y="-278" type="curve" smooth="yes"/>
      <point x="252" y="-227"/>
      <point x="219" y="-176"/>
      <point x="105" y="-134" type="curve"/>
      <point x="105" y="-151" type="line"/>
      <point x="241" y="0" type="line"/>
      <point x="214" y="0" type="line"/>
      <point x="49" y="-177" type="line"/>
      <point x="49" y="-181" type="line"/>
      <point x="163" y="-219"/>
      <point x="201" y="-262"/>
      <point x="201" y="-310" type="curve" smooth="yes"/>
      <point x="201" y="-377"/>
      <point x="140" y="-434"/>
      <point x="70" y="-434" type="curve" smooth="yes"/>
      <point x="-3" y="-434"/>
      <point x="-21" y="-373"/>
      <point x="-36" y="-373" type="curve" smooth="yes"/>
      <point x="-60" y="-373"/>
      <point x="-76" y="-391"/>
      <point x="-76" y="-412" type="curve" smooth="yes"/>
      <point x="-76" y="-441"/>
      <point x="-52" y="-465"/>
    </contour>
    <contour>
      <point x="81" y="145" type="curve"/>
      <point x="2" y="145"/>
      <point x="-27" y="116"/>
      <point x="-27" y="71" type="curve" smooth="yes"/>
      <point x="-27" y="16"/>
      <point x="18" y="-20"/>
      <point x="126" y="-20" type="curve" smooth="yes"/>
      <point x="336" y="-20"/>
      <point x="505" y="111"/>
      <point x="505" y="299" type="curve" smooth="yes"/>
      <point x="505" y="365"/>
      <point x="479" y="436"/>
      <point x="374" y="554" type="curve" smooth="yes"/>
      <point x="269" y="672"/>
      <point x="242" y="735"/>
      <point x="242" y="801" type="curve" smooth="yes"/>
      <point x="242" y="929"/>
      <point x="341" y="1008"/>
      <point x="471" y="1008" type="curve" smooth="yes"/>
      <point x="509" y="1008"/>
      <point x="529" y="1001"/>
      <point x="545" y="983" type="curve" smooth="yes"/>
      <point x="561" y="965"/>
      <point x="565" y="939"/>
      <point x="561" y="893" type="curve"/>
      <point x="634" y="893"/>
      <point x="665" y="916"/>
      <point x="665" y="961" type="curve" smooth="yes"/>
      <point x="665" y="1009"/>
      <point x="626" y="1044"/>
      <point x="515" y="1044" type="curve" smooth="yes"/>
      <point x="349" y="1044"/>
      <point x="186" y="928"/>
      <point x="186" y="750" type="curve" smooth="yes"/>
      <point x="186" y="676"/>
      <point x="224" y="594"/>
      <point x="323" y="484" type="curve" smooth="yes"/>
      <point x="422" y="374"/>
      <point x="449" y="317"/>
      <point x="449" y="260" type="curve" smooth="yes"/>
      <point x="449" y="103"/>
      <point x="347" y="25"/>
      <point x="182" y="25" type="curve" smooth="yes"/>
      <point x="142" y="25"/>
      <point x="113" y="35"/>
      <point x="98" y="56" type="curve" smooth="yes"/>
      <point x="83" y="77"/>
      <point x="78" y="108"/>
    </contour>
  </outline>
</glyph>
<glyph name="uni0163" format="2">
  <advance width="581"/>
  <unicode hex="0163"/>
  <outline>
    <contour>
      <point x="147.0" y="997.0" type="line"/>
      <point x="646.0" y="997.0" type="line"/>
      <point x="652.0" y="1024.0" type="line"/>
      <point x="159.0" y="1024.0" type="line"/>
    </contour>
    <contour>
      <point x="200.0" y="259.0" type="curve" smooth="yes"/>
      <point x="524.0" y="1270.0" type="line"/>
      <point x="452.0" y="1270.0" type="line"/>
      <point x="115.0" y="219.0" type="line" smooth="yes"/>
      <point x="99.0" y="169.0"/>
      <point x="92.0" y="128.0"/>
      <point x="92.0" y="95.0" type="curve" smooth="yes"/>
      <point x="92.0" y="14.0"/>
      <point x="136.0" y="-20.0"/>
      <point x="204.0" y="-20.0" type="curve" smooth="yes"/>
      <point x="302.0" y="-20.0"/>
      <point x="386.0" y="48.0"/>
      <point x="524.0" y="295.0" type="curve"/>
      <point x="515.0" y="300.0" type="line"/>
      <point x="367.0" y="66.0"/>
      <point x="286.0" y="30.0"/>
      <point x="230.0" y="30.0" type="curve" smooth="yes"/>
      <point x="189.0" y="30.0"/>
      <point x="166.0" y="49.0"/>
      <point x="166.0" y="101.0" type="curve" smooth="yes"/>
      <point x="166.0" y="137.0"/>
      <point x="177.0" y="188.0"/>
    </contour>
    <contour>
      <point x="20.0" y="-465.0" type="curve" smooth="yes"/>
      <point x="157.0" y="-465.0"/>
      <point x="255.0" y="-381.0"/>
      <point x="255.0" y="-278.0" type="curve" smooth="yes"/>
      <point x="255.0" y="-227.0"/>
      <point x="222.0" y="-176.0"/>
      <point x="108.0" y="-134.0" type="curve"/>
      <point x="108.0" y="-151.0" type="line"/>
      <point x="244.0" y="0.0" type="line"/>
      <point x="217.0" y="0.0" type="line"/>
      <point x="52.0" y="-177.0" type="line"/>
      <point x="52.0" y="-181.0" type="line"/>
      <point x="166.0" y="-219.0"/>
      <point x="204.0" y="-262.0"/>
      <point x="204.0" y="-310.0" type="curve" smooth="yes"/>
      <point x="204.0" y="-377.0"/>
      <point x="143.0" y="-434.0"/>
      <point x="73.0" y="-434.0" type="curve" smooth="yes"/>
      <point x="0.0" y="-434.0"/>
      <point x="-18.0" y="-373.0"/>
      <point x="-33.0" y="-373.0" type="curve" smooth="yes"/>
      <point x="-57.0" y="-373.0"/>
      <point x="-73.0" y="-391.0"/>
      <point x="-73.0" y="-412.0" type="curve" smooth="yes"/>
      <point x="-73.0" y="-441.0"/>
      <point x="-49.0" y="-465.0"/>
    </contour>
  </outline>
</glyph>
<glyph name="tbar" format="2">
  <advance width="593"/>
  <unicode hex="0167"/>
  <outline>
    <contour>
      <point x="63.0" y="604.0" type="line"/>
      <point x="532.0" y="604.0" type="line"/>
      <point x="548.0" y="656.0" type="line"/>
      <point x="79.0" y="656.0" type="line"/>
    </contour>
    <contour>
      <point x="158.0" y="997.0" type="line"/>
      <point x="657.0" y="997.0" type="line"/>
      <point x="663.0" y="1024.0" type="line"/>
      <point x="170.0" y="1024.0" type="line"/>
    </contour>
    <contour>
      <point x="177.0" y="101.0" type="curve" smooth="yes"/>
      <point x="177.0" y="137.0"/>
      <point x="188.0" y="188.0"/>
      <point x="211.0" y="259.0" type="curve" smooth="yes"/>
      <point x="535.0" y="1270.0" type="line"/>
      <point x="463.0" y="1270.0" type="line"/>
      <point x="126.0" y="219.0" type="line" smooth="yes"/>
      <point x="110.0" y="169.0"/>
      <point x="103.0" y="128.0"/>
      <point x="103.0" y="95.0" type="curve" smooth="yes"/>
      <point x="103.0" y="14.0"/>
      <point x="147.0" y="-20.0"/>
      <point x="215.0" y="-20.0" type="curve" smooth="yes"/>
      <point x="313.0" y="-20.0"/>
      <point x="397.0" y="48.0"/>
      <point x="535.0" y="295.0" type="curve"/>
      <point x="526.0" y="300.0" type="line"/>
      <point x="378.0" y="66.0"/>
      <point x="297.0" y="30.0"/>
      <point x="241.0" y="30.0" type="curve" smooth="yes"/>
      <point x="200.0" y="30.0"/>
      <point x="177.0" y="49.0"/>
    </contour>
  </outline>
</glyph>
<glyph name="Uogonek" format="2">
  <advance width="1456"/>
  <unicode hex="0172"/>
  <outline>
    <contour>
      <point x="332.0" y="616.0" type="curve" smooth="yes"/>
      <point x="570.0" y="1394.0" type="line"/>
      <point x="748.0" y="1418.0" type="line"/>
      <point x="752.0" y="1430.0" type="line"/>
      <point x="326.0" y="1430.0" type="line"/>
      <point x="322.0" y="1418.0" type="line"/>
      <point x="493.0" y="1394.0" type="line"/>
      <point x="255.0" y="614.0" type="line" smooth="yes"/>
      <point x="120.0" y="170.0"/>
      <point x="286.0" y="-20.0"/>
      <point x="621.0" y="-20.0" type="curve" smooth="yes"/>
      <point x="963.0" y="-20.0"/>
      <point x="1133.0" y="156.0"/>
      <point x="1253.0" y="549.0" type="curve" smooth="yes"/>
      <point x="1511.0" y="1394.0" type="line"/>
      <point x="1689.0" y="1418.0" type="line"/>
      <point x="1693.0" y="1430.0" type="line"/>
      <point x="1311.0" y="1430.0" type="line"/>
      <point x="1307.0" y="1418.0" type="line"/>
      <point x="1478.0" y="1394.0" type="line"/>
      <point x="1234.0" y="595.0" type="line" smooth="yes"/>
      <point x="1104.0" y="168.0"/>
      <point x="942.0" y="27.0"/>
      <point x="644.0" y="27.0" type="curve" smooth="yes"/>
      <point x="328.0" y="27.0"/>
      <point x="211.0" y="219.0"/>
    </contour>
    <contour>
      <point x="467.0" y="-347.0" type="curve" smooth="yes"/>
      <point x="467.0" y="-299.0"/>
      <point x="487.0" y="-233.0"/>
      <point x="607.0" y="-82.0" type="curve" smooth="yes"/>
      <point x="672.0" y="0.0" type="line"/>
      <point x="651.0" y="0.0" type="line"/>
      <point x="545.0" y="-124.0" type="line" smooth="yes"/>
      <point x="432.0" y="-256.0"/>
      <point x="406.0" y="-309.0"/>
      <point x="406.0" y="-364.0" type="curve" smooth="yes"/>
      <point x="406.0" y="-422.0"/>
      <point x="442.0" y="-465.0"/>
      <point x="517.0" y="-465.0" type="curve" smooth="yes"/>
      <point x="577.0" y="-465.0"/>
      <point x="617.0" y="-434.0"/>
      <point x="675.0" y="-359.0" type="curve"/>
      <point x="667.0" y="-351.0" type="line"/>
      <point x="624.0" y="-395.0"/>
      <point x="584.0" y="-414.0"/>
      <point x="546.0" y="-414.0" type="curve" smooth="yes"/>
      <point x="488.0" y="-414.0"/>
      <point x="467.0" y="-388.0"/>
    </contour>
  </outline>
</glyph>
<glyph name="uogonek" format="2">
  <advance width="1021"/>
  <unicode hex="0173"/>
  <outline>
    <contour>
      <point x="974.0" y="281.0" type="curve"/>
      <point x="967.0" y="286.0" type="line"/>
      <point x="792.0" y="74.0"/>
      <point x="679.0" y="32.0"/>
      <point x="610.0" y="51.0" type="curve"/>
      <point x="639.0" y="6.0" type="line"/>
      <point x="978.0" y="1024.0" type="line"/>
      <point x="908.0" y="1024.0" type="line"/>
      <point x="735.0" y="504.0" type="line"/>
      <point x="642.0" y="311.0"/>
      <point x="490.0" y="41.0"/>
      <point x="269.0" y="41.0" type="curve" smooth="yes"/>
      <point x="210.0" y="41.0"/>
      <point x="168.0" y="64.0"/>
      <point x="168.0" y="132.0" type="curve" smooth="yes"/>
      <point x="168.0" y="163.0"/>
      <point x="182.0" y="209.0"/>
      <point x="229.0" y="328.0" type="curve" smooth="yes"/>
      <point x="479.0" y="962.0" type="line" smooth="yes"/>
      <point x="501.0" y="1018.0"/>
      <point x="498.0" y="1044.0"/>
      <point x="446.0" y="1044.0" type="curve" smooth="yes"/>
      <point x="359.0" y="1044.0"/>
      <point x="240.0" y="995.0"/>
      <point x="70.0" y="749.0" type="curve"/>
      <point x="77.0" y="743.0" type="line"/>
      <point x="237.0" y="942.0"/>
      <point x="397.0" y="998.0"/>
      <point x="455.0" y="975.0" type="curve"/>
      <point x="429.0" y="1018.0" type="line"/>
      <point x="149.0" y="309.0" type="line" smooth="yes"/>
      <point x="102.0" y="189.0"/>
      <point x="90.0" y="150.0"/>
      <point x="90.0" y="107.0" type="curve" smooth="yes"/>
      <point x="90.0" y="33.0"/>
      <point x="139.0" y="-20.0"/>
      <point x="247.0" y="-20.0" type="curve" smooth="yes"/>
      <point x="472.0" y="-20.0"/>
      <point x="628.0" y="222.0"/>
      <point x="746.0" y="508.0" type="curve"/>
      <point x="726.0" y="471.0" type="line"/>
      <point x="599.0" y="81.0" type="line" smooth="yes"/>
      <point x="570.0" y="-7.0"/>
      <point x="576.0" y="-20.0"/>
      <point x="622.0" y="-20.0" type="curve" smooth="yes"/>
      <point x="675.0" y="-20.0"/>
      <point x="731.0" y="3.0"/>
      <point x="795.0" y="61.0" type="curve"/>
      <point x="791.0" y="66.0" type="line"/>
      <point x="665.0" y="-84.0" type="line" smooth="yes"/>
      <point x="541.0" y="-232.0"/>
      <point x="519.0" y="-299.0"/>
      <point x="519.0" y="-352.0" type="curve" smooth="yes"/>
      <point x="519.0" y="-423.0"/>
      <point x="556.0" y="-465.0"/>
      <point x="632.0" y="-465.0" type="curve" smooth="yes"/>
      <point x="692.0" y="-465.0"/>
      <point x="732.0" y="-434.0"/>
      <point x="790.0" y="-359.0" type="curve"/>
      <point x="782.0" y="-351.0" type="line"/>
      <point x="739.0" y="-395.0"/>
      <point x="699.0" y="-414.0"/>
      <point x="661.0" y="-414.0" type="curve" smooth="yes"/>
      <point x="599.0" y="-414.0"/>
      <point x="580.0" y="-382.0"/>
      <point x="580.0" y="-331.0" type="curve" smooth="yes"/>
      <point x="580.0" y="-279.0"/>
      <point x="605.0" y="-206.0"/>
      <point x="731.0" y="-42.0" type="curve" smooth="yes"/>
      <point x="880.0" y="151.0" type="line" smooth="yes"/>
      <point x="918.0" y="200.0"/>
      <point x="947.0" y="240.0"/>
    </contour>
  </outline>
</glyph>
<glyph name="uni018F" format="2">
  <advance width="1413"/>
  <unicode hex="018F"/>
  <outline>
    <contour>
      <point x="139.0" y="532.0" type="line"/>
      <point x="128.0" y="481.0"/>
      <point x="123.0" y="433.0"/>
      <point x="123.0" y="388.0" type="curve" smooth="yes"/>
      <point x="123.0" y="136.0"/>
      <point x="288.0" y="-20.0"/>
      <point x="588.0" y="-20.0" type="curve" smooth="yes"/>
      <point x="1100.0" y="-20.0"/>
      <point x="1393.0" y="498.0"/>
      <point x="1393.0" y="930.0" type="curve" smooth="yes"/>
      <point x="1393.0" y="1270.0"/>
      <point x="1192.0" y="1450.0"/>
      <point x="862.0" y="1450.0" type="curve" smooth="yes"/>
      <point x="642.0" y="1450.0"/>
      <point x="466.0" y="1375.0"/>
      <point x="224.0" y="1126.0" type="curve"/>
      <point x="235.0" y="1113.0" type="line"/>
      <point x="446.0" y="1324.0"/>
      <point x="614.0" y="1399.0"/>
      <point x="837.0" y="1399.0" type="curve" smooth="yes"/>
      <point x="1142.0" y="1399.0"/>
      <point x="1317.0" y="1212.0"/>
      <point x="1317.0" y="900.0" type="curve" smooth="yes"/>
      <point x="1317.0" y="503.0"/>
      <point x="1077.0" y="7.0"/>
      <point x="589.0" y="7.0" type="curve" smooth="yes"/>
      <point x="339.0" y="7.0"/>
      <point x="199.0" y="144.0"/>
      <point x="199.0" y="389.0" type="curve" smooth="yes"/>
      <point x="199.0" y="431.0"/>
      <point x="203.0" y="475.0"/>
      <point x="211.0" y="523.0" type="curve"/>
      <point x="191.0" y="504.0" type="line"/>
      <point x="1264.0" y="504.0" type="line"/>
      <point x="1269.0" y="532.0" type="line"/>
    </contour>
  </outline>
</glyph>
<glyph name="uni01EB" format="2">
  <advance width="883"/>
  <unicode hex="01EB"/>
  <outline>
    <contour>
      <point x="590.0" y="1044.0" type="curve" smooth="yes"/>
      <point x="295.0" y="1044.0"/>
      <point x="45.0" y="668.0"/>
      <point x="62.0" y="271.0" type="curve" smooth="yes"/>
      <point x="70.0" y="78.0"/>
      <point x="149.0" y="-20.0"/>
      <point x="292.0" y="-20.0" type="curve" smooth="yes"/>
      <point x="587.0" y="-20.0"/>
      <point x="837.0" y="356.0"/>
      <point x="820.0" y="753.0" type="curve" smooth="yes"/>
      <point x="812.0" y="946.0"/>
      <point x="733.0" y="1044.0"/>
    </contour>
    <contour>
      <point x="291.0" y="2.0" type="curve" smooth="yes"/>
      <point x="194.0" y="2.0"/>
      <point x="145.0" y="74.0"/>
      <point x="138.0" y="242.0" type="curve" smooth="yes"/>
      <point x="122.0" y="609.0"/>
      <point x="346.0" y="1022.0"/>
      <point x="591.0" y="1022.0" type="curve" smooth="yes"/>
      <point x="688.0" y="1022.0"/>
      <point x="737.0" y="950.0"/>
      <point x="744.0" y="782.0" type="curve" smooth="yes"/>
      <point x="759.0" y="415.0"/>
      <point x="536.0" y="2.0"/>
    </contour>
    <contour>
      <point x="243.0" y="-82.0" type="curve" smooth="yes"/>
      <point x="308.0" y="-3.0" type="line"/>
      <point x="288.0" y="-3.0" type="line"/>
      <point x="179.0" y="-124.0" type="line" smooth="yes"/>
      <point x="60.0" y="-255.0"/>
      <point x="28.0" y="-309.0"/>
      <point x="30.0" y="-364.0" type="curve" smooth="yes"/>
      <point x="33.0" y="-422.0"/>
      <point x="71.0" y="-465.0"/>
      <point x="146.0" y="-465.0" type="curve" smooth="yes"/>
      <point x="206.0" y="-465.0"/>
      <point x="244.0" y="-434.0"/>
      <point x="299.0" y="-359.0" type="curve"/>
      <point x="291.0" y="-351.0" type="line"/>
      <point x="250.0" y="-395.0"/>
      <point x="210.0" y="-414.0"/>
      <point x="172.0" y="-414.0" type="curve" smooth="yes"/>
      <point x="114.0" y="-414.0"/>
      <point x="92.0" y="-388.0"/>
      <point x="91.0" y="-347.0" type="curve" smooth="yes"/>
      <point x="89.0" y="-299.0"/>
      <point x="118.0" y="-234.0"/>
    </contour>
  </outline>
</glyph>
<glyph name="uni0302" format="2">
  <unicode hex="0302"/>
  <anchor x="157" y="1024.0" name="_top"/>
  <anchor x="291" y="1464.0" name="top"/>
  <outline>
    <contour>
      <point x="-91.0" y="1138.0" type="line"/>
      <point x="-62.0" y="1138.0" type="line"/>
      <point x="302.0" y="1400.0" type="line"/>
      <point x="256.0" y="1400.0" type="line"/>
      <point x="453.0" y="1138.0" type="line"/>
      <point x="474.0" y="1138.0" type="line"/>
      <point x="324.0" y="1464.0" type="line"/>
      <point x="257.0" y="1464.0" type="line"/>
    </contour>
  </outline>
</glyph>
<glyph name="uni0304" format="2">
  <unicode hex="0304"/>
  <anchor x="157" y="1024.0" name="_top"/>
  <anchor x="291" y="1464.0" name="top"/>
  <outline>
    <contour>
      <point x="-22.0" y="1275.0" type="line"/>
      <point x="489.0" y="1275.0" type="line"/>
      <point x="505.0" y="1328.0" type="line"/>
      <point x="-6.0" y="1328.0" type="line"/>
    </contour>
  </outline>
</glyph>
<glyph name="uni0307" format="2">
  <unicode hex="0307"/>
  <anchor x="157" y="1024.0" name="_top"/>
  <anchor x="264" y="1376.0" name="top"/>
  <anchor x="241" y="1301.0" name="_mid"/>
  <outline>
    <contour>
      <point x="228.0" y="1226.0" type="curve" smooth="yes"/>
      <point x="280.0" y="1226.0"/>
      <point x="315.0" y="1269.0"/>
      <point x="315.0" y="1313.0" type="curve" smooth="yes"/>
      <point x="315.0" y="1347.0"/>
      <point x="293.0" y="1376.0"/>
      <point x="254.0" y="1376.0" type="curve" smooth="yes"/>
      <point x="202.0" y="1376.0"/>
      <point x="167.0" y="1333.0"/>
      <point x="167.0" y="1289.0" type="curve" smooth="yes"/>
      <point x="167.0" y="1255.0"/>
      <point x="189.0" y="1226.0"/>
    </contour>
  </outline>
</glyph>
<glyph name="uni0308" format="2">
  <unicode hex="0308"/>
  <anchor x="157" y="1024.0" name="_top"/>
  <anchor x="264" y="1376.0" name="top"/>
  <outline>
    <contour>
      <point x="36.0" y="1226.0" type="curve" smooth="yes"/>
      <point x="88.0" y="1226.0"/>
      <point x="123.0" y="1269.0"/>
      <point x="123.0" y="1313.0" type="curve" smooth="yes"/>
      <point x="123.0" y="1347.0"/>
      <point x="101.0" y="1376.0"/>
      <point x="62.0" y="1376.0" type="curve" smooth="yes"/>
      <point x="10.0" y="1376.0"/>
      <point x="-25.0" y="1333.0"/>
      <point x="-25.0" y="1289.0" type="curve" smooth="yes"/>
      <point x="-25.0" y="1255.0"/>
      <point x="-3.0" y="1226.0"/>
    </contour>
    <contour>
      <point x="421.0" y="1226.0" type="curve" smooth="yes"/>
      <point x="473.0" y="1226.0"/>
      <point x="508.0" y="1269.0"/>
      <point x="508.0" y="1313.0" type="curve" smooth="yes"/>
      <point x="508.0" y="1347.0"/>
      <point x="486.0" y="1376.0"/>
      <point x="447.0" y="1376.0" type="curve" smooth="yes"/>
      <point x="395.0" y="1376.0"/>
      <point x="360.0" y="1333.0"/>
      <point x="360.0" y="1289.0" type="curve" smooth="yes"/>
      <point x="360.0" y="1255.0"/>
      <point x="382.0" y="1226.0"/>
    </contour>
  </outline>
</glyph>
<glyph name="hookabovecomb" format="2">
  <unicode hex="0309"/>
  <anchor x="157" y="1024.0" name="_top"/>
  <anchor x="291" y="1464.0" name="top"/>
  <outline>
    <contour>
      <point x="125.0" y="1423.0" type="line"/>
      <point x="321.0" y="1415.0"/>
      <point x="377.0" y="1369.0"/>
      <point x="377.0" y="1309.0" type="curve" smooth="yes"/>
      <point x="377.0" y="1233.0"/>
      <point x="304.0" y="1178.0"/>
      <point x="137.0" y="1149.0" type="curve"/>
      <point x="138.0" y="1130.0" type="line"/>
      <point x="358.0" y="1168.0"/>
      <point x="431.0" y="1239.0"/>
      <point x="431.0" y="1334.0" type="curve" smooth="yes"/>
      <point x="431.0" y="1414.0"/>
      <point x="367.0" y="1478.0"/>
      <point x="141.0" y="1490.0" type="curve"/>
    </contour>
  </outline>
</glyph>
<glyph name="uni0311" format="2">
  <unicode hex="0311"/>
  <anchor x="157" y="1024.0" name="_top"/>
  <anchor x="291" y="1464.0" name="top"/>
  <outline>
    <contour>
      <point x="274.0" y="1396.0" type="curve" smooth="yes"/>
      <point x="398.0" y="1396.0"/>
      <point x="449.0" y="1323.0"/>
      <point x="442.0" y="1138.0" type="curve"/>
      <point x="465.0" y="1138.0" type="line"/>
      <point x="484.0" y="1410.0"/>
      <point x="443.0" y="1474.0"/>
      <point x="280.0" y="1474.0" type="curve" smooth="yes"/>
      <point x="146.0" y="1474.0"/>
      <point x="66.0" y="1410.0"/>
      <point x="-81.0" y="1138.0" type="curve"/>
      <point x="-52.0" y="1138.0" type="line"/>
      <point x="48.0" y="1321.0"/>
      <point x="149.0" y="1396.0"/>
    </contour>
  </outline>
</glyph>
<glyph name="uni0312" format="2">
  <unicode hex="0312"/>
  <anchor x="157" y="1024.0" name="_top"/>
  <anchor x="291" y="1464.0" name="top"/>
  <outline>
    <contour>
      <point x="275.0" y="1127.0"/>
      <point x="317.0" y="1177.0"/>
      <point x="317.0" y="1220.0" type="curve" smooth="yes"/>
      <point x="317.0" y="1243.0"/>
      <point x="216.0" y="1241.0"/>
      <point x="216.0" y="1303.0" type="curve" smooth="yes"/>
      <point x="216.0" y="1352.0"/>
      <point x="272.0" y="1427.0"/>
      <point x="427.0" y="1454.0" type="curve"/>
      <point x="434.0" y="1479.0" type="line"/>
      <point x="208.0" y="1445.0"/>
      <point x="135.0" y="1317.0"/>
      <point x="135.0" y="1221.0" type="curve" smooth="yes"/>
      <point x="135.0" y="1160.0"/>
      <point x="169.0" y="1127.0"/>
      <point x="218.0" y="1127.0" type="curve" smooth="yes"/>
    </contour>
  </outline>
</glyph>
<glyph name="uni0327" format="2">
  <unicode hex="0327"/>
  <anchor x="-157" y="0" name="_bottom"/>
  <anchor x="-299" y="-465" name="bottom"/>
  <outline>
    <contour>
      <point x="-354.0" y="-465.0" type="curve" smooth="yes"/>
      <point x="-217.0" y="-465.0"/>
      <point x="-119.0" y="-381.0"/>
      <point x="-119.0" y="-278.0" type="curve" smooth="yes"/>
      <point x="-119.0" y="-227.0"/>
      <point x="-152.0" y="-176.0"/>
      <point x="-266.0" y="-134.0" type="curve"/>
      <point x="-266.0" y="-151.0" type="line"/>
      <point x="-130.0" y="0.0" type="line"/>
      <point x="-157.0" y="0.0" type="line"/>
      <point x="-322.0" y="-177.0" type="line"/>
      <point x="-322.0" y="-181.0" type="line"/>
      <point x="-208.0" y="-219.0"/>
      <point x="-170.0" y="-262.0"/>
      <point x="-170.0" y="-310.0" type="curve" smooth="yes"/>
      <point x="-170.0" y="-377.0"/>
      <point x="-231.0" y="-434.0"/>
      <point x="-301.0" y="-434.0" type="curve" smooth="yes"/>
      <point x="-374.0" y="-434.0"/>
      <point x="-392.0" y="-373.0"/>
      <point x="-407.0" y="-373.0" type="curve" smooth="yes"/>
      <point x="-431.0" y="-373.0"/>
      <point x="-447.0" y="-391.0"/>
      <point x="-447.0" y="-412.0" type="curve" smooth="yes"/>
      <point x="-447.0" y="-441.0"/>
      <point x="-423.0" y="-465.0"/>
    </contour>
  </outline>
</glyph>
<glyph name="uni0328" format="2">
  <unicode hex="0328"/>
  <anchor x="-157" y="0" name="_right"/>
  <outline>
    <contour>
      <point x="-262.0" y="-82.0" type="curve" smooth="yes"/>
      <point x="-190.0" y="0.0" type="line"/>
      <point x="-210.0" y="0.0" type="line"/>
      <point x="-328.0" y="-124.0" type="line" smooth="yes"/>
      <point x="-453.0" y="-255.0"/>
      <point x="-487.0" y="-309.0"/>
      <point x="-487.0" y="-364.0" type="curve" smooth="yes"/>
      <point x="-487.0" y="-422.0"/>
      <point x="-451.0" y="-465.0"/>
      <point x="-376.0" y="-465.0" type="curve" smooth="yes"/>
      <point x="-316.0" y="-465.0"/>
      <point x="-276.0" y="-434.0"/>
      <point x="-218.0" y="-359.0" type="curve"/>
      <point x="-226.0" y="-351.0" type="line"/>
      <point x="-269.0" y="-395.0"/>
      <point x="-309.0" y="-414.0"/>
      <point x="-347.0" y="-414.0" type="curve" smooth="yes"/>
      <point x="-405.0" y="-414.0"/>
      <point x="-426.0" y="-388.0"/>
      <point x="-426.0" y="-347.0" type="curve" smooth="yes"/>
      <point x="-426.0" y="-299.0"/>
      <point x="-394.0" y="-234.0"/>
    </contour>
  </outline>
</glyph>
<glyph name="uni032E" format="2">
  <unicode hex="032E"/>
  <anchor x="-157" y="0" name="_bottom"/>
  <anchor x="-299" y="-465.0" name="bottom"/>
  <outline>
    <contour>
      <point x="-253.0" y="-308.0" type="curve" smooth="yes"/>
      <point x="-377.0" y="-308.0"/>
      <point x="-428.0" y="-235.0"/>
      <point x="-421.0" y="-50.0" type="curve"/>
      <point x="-444.0" y="-50.0" type="line"/>
      <point x="-463.0" y="-322.0"/>
      <point x="-422.0" y="-386.0"/>
      <point x="-259.0" y="-386.0" type="curve" smooth="yes"/>
      <point x="-125.0" y="-386.0"/>
      <point x="-45.0" y="-322.0"/>
      <point x="102.0" y="-50.0" type="curve"/>
      <point x="73.0" y="-50.0" type="line"/>
      <point x="-27.0" y="-233.0"/>
      <point x="-128.0" y="-308.0"/>
    </contour>
  </outline>
</glyph>
<glyph name="uni0335" format="2">
  <unicode hex="0335"/>
  <anchor x="212" y="1207.0" name="_center"/>
  <outline>
    <contour>
      <point x="-68.0" y="1181.0" type="line"/>
      <point x="477.0" y="1181.0" type="line"/>
      <point x="493.0" y="1233.0" type="line"/>
      <point x="-52.0" y="1233.0" type="line"/>
    </contour>
  </outline>
</glyph>
<glyph name="daggerdbl" format="2">
  <advance width="778"/>
  <unicode hex="2021"/>
  <outline>
    <contour>
      <point x="596.0" y="1200.0" type="line"/>
      <point x="339.0" y="1228.0" type="line"/>
      <point x="313.0" y="1142.0" type="line"/>
      <point x="587.0" y="1170.0" type="line"/>
      <point x="845.0" y="1142.0" type="line"/>
      <point x="871.0" y="1228.0" type="line"/>
    </contour>
    <contour>
      <point x="593.0" y="1046.0" type="line"/>
      <point x="606.0" y="1184.0" type="line"/>
      <point x="718.0" y="1464.0" type="line"/>
      <point x="636.0" y="1464.0" type="line"/>
      <point x="577.0" y="1184.0" type="line"/>
      <point x="506.0" y="1046.0" type="line"/>
      <point x="493.0" y="907.0" type="line"/>
      <point x="380.0" y="627.0" type="line"/>
      <point x="462.0" y="627.0" type="line"/>
      <point x="521.0" y="907.0" type="line"/>
    </contour>
    <contour>
      <point x="502.0" y="891.0" type="line"/>
      <point x="759.0" y="863.0" type="line"/>
      <point x="786.0" y="949.0" type="line"/>
      <point x="511.0" y="921.0" type="line"/>
      <point x="254.0" y="949.0" type="line"/>
      <point x="227.0" y="863.0" type="line"/>
    </contour>
  </outline>
</glyph>
<glyph name="minute" format="2">
  <advance width="305"/>
  <unicode hex="2032"/>
  <outline>
    <contour>
      <point x="260.0" y="1006.0" type="line"/>
      <point x="278.0" y="1006.0" type="line"/>
      <point x="501.0" y="1422.0" type="line"/>
      <point x="501.0" y="1430.0" type="line"/>
      <point x="414.0" y="1430.0" type="line"/>
    </contour>
  </outline>
</glyph>
<glyph name="zerosuperior" format="2">
  <advance width="706"/>
  <unicode hex="2070"/>
  <guideline x="381.0" y="1418" angle="180.0" identifier="i7KfUlkWJb"/>
  <outline>
    <contour>
      <point x="402.0" y="674.0" type="curve" smooth="yes"/>
      <point x="325.0" y="674.0"/>
      <point x="276.0" y="727.0"/>
      <point x="276.0" y="878.0" type="curve" smooth="yes"/>
      <point x="276.0" y="1087.0"/>
      <point x="435.0" y="1418.0"/>
      <point x="630.0" y="1418.0" type="curve" smooth="yes"/>
      <point x="707.0" y="1418.0"/>
      <point x="756.0" y="1365.0"/>
      <point x="756.0" y="1214.0" type="curve" smooth="yes"/>
      <point x="756.0" y="1005.0"/>
      <point x="597.0" y="674.0"/>
    </contour>
    <contour>
      <point x="631.0" y="1440.0" type="curve" smooth="yes"/>
      <point x="380.0" y="1440.0"/>
      <point x="209.0" y="1108.0"/>
      <point x="209.0" y="875.0" type="curve" smooth="yes"/>
      <point x="209.0" y="744.0"/>
      <point x="276.0" y="652.0"/>
      <point x="401.0" y="652.0" type="curve" smooth="yes"/>
      <point x="652.0" y="652.0"/>
      <point x="823.0" y="984.0"/>
      <point x="823.0" y="1217.0" type="curve" smooth="yes"/>
      <point x="823.0" y="1348.0"/>
      <point x="756.0" y="1440.0"/>
    </contour>
  </outline>
</glyph>
<glyph name="uni2074" format="2">
  <advance width="607"/>
  <unicode hex="2074"/>
  <outline>
    <contour>
      <point x="593.0" y="1350.0" type="line"/>
      <point x="394.0" y="701.0" type="line"/>
      <point x="230.0" y="674.0" type="line"/>
      <point x="227.0" y="662.0" type="line"/>
      <point x="588.0" y="662.0" type="line"/>
      <point x="591.0" y="674.0" type="line"/>
      <point x="457.0" y="701.0" type="line"/>
      <point x="683.0" y="1439.0" type="line"/>
      <point x="668.0" y="1439.0" type="line"/>
      <point x="146.0" y="923.0" type="line"/>
      <point x="146.0" y="913.0" type="line"/>
      <point x="673.0" y="913.0" type="line"/>
      <point x="723.0" y="982.0" type="line"/>
      <point x="643.0" y="963.0" type="line"/>
      <point x="195.0" y="963.0" type="line"/>
      <point x="195.0" y="937.0" type="line"/>
      <point x="613.0" y="1350.0" type="line"/>
    </contour>
  </outline>
</glyph>
<glyph name="peseta" format="2">
  <advance width="1200"/>
  <unicode hex="20A7"/>
  <outline>
    <contour>
      <point x="600.0" y="154.0" type="curve" smooth="yes"/>
      <point x="881.0" y="1074.0" type="line"/>
      <point x="868.0" y="1074.0" type="line"/>
      <point x="788.0" y="922.0"/>
      <point x="758.0" y="906.0"/>
      <point x="684.0" y="882.0" type="curve"/>
      <point x="680.0" y="868.0" type="line"/>
      <point x="747.0" y="868.0" type="line"/>
      <point x="529.0" y="157.0" type="line" smooth="yes"/>
      <point x="490.0" y="29.0"/>
      <point x="518.0" y="-12.0"/>
      <point x="588.0" y="-12.0" type="curve" smooth="yes"/>
      <point x="634.0" y="-12.0"/>
      <point x="644.0" y="-7.0"/>
      <point x="741.0" y="36.0" type="curve"/>
      <point x="747.0" y="58.0" type="line"/>
      <point x="697.0" y="46.0"/>
      <point x="671.0" y="42.0"/>
      <point x="643.0" y="42.0" type="curve" smooth="yes"/>
      <point x="580.0" y="42.0"/>
      <point x="574.0" y="68.0"/>
    </contour>
    <contour>
      <point x="791.0" y="868.0" type="line"/>
      <point x="957.0" y="868.0" type="line"/>
      <point x="977.0" y="918.0" type="line"/>
      <point x="777.0" y="918.0" type="line"/>
    </contour>
    <contour>
      <point x="361.0" y="1395.0" type="line"/>
      <point x="-55.0" y="35.0" type="line"/>
      <point x="-199.0" y="12.0" type="line"/>
      <point x="-202.0" y="0.0" type="line"/>
      <point x="145.0" y="0.0" type="line"/>
      <point x="149.0" y="12.0" type="line"/>
      <point x="20.0" y="35.0" type="line"/>
      <point x="447.0" y="1430.0" type="line"/>
      <point x="235.0" y="1430.0" type="line"/>
      <point x="231.0" y="1418.0" type="line"/>
    </contour>
    <contour>
      <point x="1216.0" y="966.0" type="curve" smooth="yes"/>
      <point x="1090.0" y="966.0"/>
      <point x="992.0" y="870.0"/>
      <point x="992.0" y="698.0" type="curve" smooth="yes"/>
      <point x="992.0" y="504.0"/>
      <point x="1097.0" y="441.0"/>
      <point x="1097.0" y="276.0" type="curve" smooth="yes"/>
      <point x="1097.0" y="107.0"/>
      <point x="1023.0" y="16.0"/>
      <point x="912.0" y="16.0" type="curve" smooth="yes"/>
      <point x="881.0" y="16.0"/>
      <point x="860.0" y="22.0"/>
      <point x="844.0" y="31.0" type="curve"/>
      <point x="856.0" y="-1.0" type="line"/>
      <point x="857.0" y="260.0" type="line"/>
      <point x="844.0" y="260.0" type="line"/>
      <point x="798.0" y="5.0" type="line"/>
      <point x="835.0" y="-8.0"/>
      <point x="868.0" y="-16.0"/>
      <point x="921.0" y="-16.0" type="curve" smooth="yes"/>
      <point x="1045.0" y="-16.0"/>
      <point x="1167.0" y="97.0"/>
      <point x="1167.0" y="315.0" type="curve" smooth="yes"/>
      <point x="1167.0" y="491.0"/>
      <point x="1056.0" y="557.0"/>
      <point x="1056.0" y="727.0" type="curve" smooth="yes"/>
      <point x="1056.0" y="862.0"/>
      <point x="1110.0" y="935.0"/>
      <point x="1207.0" y="935.0" type="curve" smooth="yes"/>
      <point x="1230.0" y="935.0"/>
      <point x="1255.0" y="931.0"/>
      <point x="1272.0" y="922.0" type="curve"/>
      <point x="1263.0" y="933.0" type="line"/>
      <point x="1256.0" y="707.0" type="line"/>
      <point x="1269.0" y="707.0" type="line"/>
      <point x="1320.0" y="937.0" type="line"/>
      <point x="1299.0" y="954.0"/>
      <point x="1257.0" y="966.0"/>
    </contour>
    <contour>
      <point x="289.0" y="694.0" type="curve" smooth="yes"/>
      <point x="202.0" y="694.0" type="line"/>
      <point x="193.0" y="664.0" type="line"/>
      <point x="281.0" y="664.0" type="line" smooth="yes"/>
      <point x="556.7589098532495" y="664.0"/>
      <point x="718.0" y="916.0"/>
      <point x="718.0" y="1191.0" type="curve" smooth="yes"/>
      <point x="718.0" y="1334.0"/>
      <point x="657.1627906976745" y="1430.0"/>
      <point x="500.0" y="1430.0" type="curve" smooth="yes"/>
      <point x="434.0" y="1430.0" type="line"/>
      <point x="418.0" y="1400.0" type="line"/>
      <point x="485.0" y="1400.0" type="line" smooth="yes"/>
      <point x="605.5882352941177" y="1400.0"/>
      <point x="649.0" y="1335.0"/>
      <point x="649.0" y="1216.0" type="curve" smooth="yes"/>
      <point x="649.0" y="921.0"/>
      <point x="505.0" y="694.0"/>
    </contour>
  </outline>
</glyph>
<glyph name="minus" format="2">
  <advance width="1150"/>
  <unicode hex="2212"/>
  <outline>
    <contour>
      <point x="171.0" y="534.0" type="line"/>
      <point x="157.0" y="490.0" type="line"/>
      <point x="979.0" y="490.0" type="line"/>
      <point x="993.0" y="534.0" type="line"/>
    </contour>
  </outline>
</glyph>
<glyph name="lessequal" format="2">
  <advance width="1150"/>
  <unicode hex="2264"/>
  <outline>
    <contour>
      <point x="230.0" y="625.0" type="line"/>
      <point x="1145.0" y="980.0" type="line"/>
      <point x="1162.0" y="1036.0" type="line"/>
      <point x="212.0" y="663.0" type="line"/>
      <point x="198.0" y="615.0" type="line"/>
      <point x="920.0" y="242.0" type="line"/>
      <point x="933.0" y="288.0" type="line"/>
      <point x="238.0" y="649.0" type="line"/>
    </contour>
    <contour>
      <point x="23.0" y="44.0" type="line"/>
      <point x="9.0" y="0.0" type="line"/>
      <point x="845.0" y="0.0" type="line"/>
      <point x="859.0" y="44.0" type="line"/>
    </contour>
  </outline>
</glyph>
<glyph name="uni27E9" format="2">
  <advance width="1150"/>
  <unicode hex="27E9"/>
  <outline>
    <contour>
      <point x="929.0" y="747.0" type="line"/>
      <point x="103.0" y="0.0" type="line"/>
      <point x="169.0" y="0.0" type="line"/>
      <point x="950.0" y="710.0" type="line"/>
      <point x="954.0" y="722.0" type="line"/>
      <point x="587.0" y="1430.0" type="line"/>
      <point x="541.0" y="1430.0" type="line"/>
      <point x="916.0" y="699.0" type="line"/>
    </contour>
  </outline>
</glyph>
<glyph name="f_f" format="2">
  <advance width="941"/>
  <unicode hex="FB00"/>
  <outline>
    <contour>
      <point x="1102.0" y="1024.0" type="line"/>
      <point x="140.0" y="1024.0" type="line"/>
      <point x="134.0" y="997.0" type="line"/>
      <point x="1096.0" y="997.0" type="line"/>
    </contour>
    <contour>
      <point x="339.0" y="955.0" type="curve" smooth="yes"/>
      <point x="161.0" y="231.0" type="line" smooth="yes"/>
      <point x="21" y="-337"/>
      <point x="-65.0" y="-441.0"/>
      <point x="-174.0" y="-441.0" type="curve" smooth="yes"/>
      <point x="-208.0" y="-441.0"/>
      <point x="-219.0" y="-423.0"/>
      <point x="-202.0" y="-364.0" type="curve" smooth="yes"/>
      <point x="-185.0" y="-305.0"/>
      <point x="-194.0" y="-283.0"/>
      <point x="-232.0" y="-283.0" type="curve" smooth="yes"/>
      <point x="-279.0" y="-283.0"/>
      <point x="-306.0" y="-320.0"/>
      <point x="-306.0" y="-364.0" type="curve" smooth="yes"/>
      <point x="-306.0" y="-419.0"/>
      <point x="-267.0" y="-465.0"/>
      <point x="-185.0" y="-465.0" type="curve" smooth="yes"/>
      <point x="-33.0" y="-465.0"/>
      <point x="87" y="-330"/>
      <point x="258.0" y="341.0" type="curve" smooth="yes"/>
      <point x="430.0" y="1018.0" type="line" smooth="yes"/>
      <point x="509.0" y="1329.0"/>
      <point x="626.0" y="1427.0"/>
      <point x="745.0" y="1427.0" type="curve" smooth="yes"/>
      <point x="843.0" y="1427.0"/>
      <point x="886.0" y="1372.0"/>
      <point x="903.0" y="1283.0" type="curve"/>
      <point x="966.0" y="1347.0" type="line"/>
      <point x="931.0" y="1401.0"/>
      <point x="881.0" y="1450.0"/>
      <point x="771.0" y="1450.0" type="curve" smooth="yes"/>
      <point x="624.0" y="1450.0"/>
      <point x="436.0" y="1350.0"/>
    </contour>
    <contour>
      <point x="759.0" y="955.0" type="curve" smooth="yes"/>
      <point x="581.0" y="231.0" type="line" smooth="yes"/>
      <point x="443.0" y="-330.0"/>
      <point x="317.0" y="-401.0"/>
      <point x="200.0" y="-401.0" type="curve" smooth="yes"/>
      <point x="113.0" y="-401.0"/>
      <point x="70.0" y="-348.0"/>
      <point x="55.0" y="-235.0" type="curve"/>
      <point x="-3.0" y="-313.0" type="line"/>
      <point x="46.0" y="-396.0"/>
      <point x="106.0" y="-425.0"/>
      <point x="190.0" y="-425.0" type="curve" smooth="yes"/>
      <point x="351.0" y="-425.0"/>
      <point x="513.0" y="-309.0"/>
      <point x="678.0" y="341.0" type="curve" smooth="yes"/>
      <point x="850.0" y="1018.0" type="line" smooth="yes"/>
      <point x="937" y="1360"/>
      <point x="1046.0" y="1461.0"/>
      <point x="1165.0" y="1461.0" type="curve" smooth="yes"/>
      <point x="1221.0" y="1461.0"/>
      <point x="1232.0" y="1434.0"/>
      <point x="1216.0" y="1378.0" type="curve" smooth="yes"/>
      <point x="1200.0" y="1322.0"/>
      <point x="1208.0" y="1305.0"/>
      <point x="1245.0" y="1305.0" type="curve" smooth="yes"/>
      <point x="1286.0" y="1305.0"/>
      <point x="1322.0" y="1337.0"/>
      <point x="1322.0" y="1391.0" type="curve" smooth="yes"/>
      <point x="1322.0" y="1445.0"/>
      <point x="1284.0" y="1484.0"/>
      <point x="1191.0" y="1484.0" type="curve" smooth="yes"/>
      <point x="1021.0" y="1484.0"/>
      <point x="856" y="1348"/>
    </contour>
  </outline>
</glyph>
<glyph name="f_f_i" format="2">
  <advance width="1345"/>
  <unicode hex="FB03"/>
  <outline>
    <contour>
      <point x="339.0" y="955.0" type="curve" smooth="yes"/>
      <point x="161.0" y="231.0" type="line" smooth="yes"/>
      <point x="21" y="-337"/>
      <point x="-65.0" y="-441.0"/>
      <point x="-174.0" y="-441.0" type="curve" smooth="yes"/>
      <point x="-208.0" y="-441.0"/>
      <point x="-219.0" y="-423.0"/>
      <point x="-202.0" y="-364.0" type="curve" smooth="yes"/>
      <point x="-185.0" y="-305.0"/>
      <point x="-194.0" y="-283.0"/>
      <point x="-232.0" y="-283.0" type="curve" smooth="yes"/>
      <point x="-279.0" y="-283.0"/>
      <point x="-306.0" y="-320.0"/>
      <point x="-306.0" y="-364.0" type="curve" smooth="yes"/>
      <point x="-306.0" y="-419.0"/>
      <point x="-267.0" y="-465.0"/>
      <point x="-185.0" y="-465.0" type="curve" smooth="yes"/>
      <point x="-33.0" y="-465.0"/>
      <point x="87" y="-330"/>
      <point x="258.0" y="341.0" type="curve" smooth="yes"/>
      <point x="430.0" y="1018.0" type="line" smooth="yes"/>
      <point x="509.0" y="1329.0"/>
      <point x="626" y="1427"/>
      <point x="745.0" y="1427.0" type="curve" smooth="yes"/>
      <point x="836.0" y="1427.0"/>
      <point x="883.0" y="1382"/>
      <point x="903.0" y="1283.0" type="curve"/>
      <point x="966.0" y="1347.0" type="line"/>
      <point x="922.0" y="1414.0"/>
      <point x="867" y="1450"/>
      <point x="771.0" y="1450.0" type="curve" smooth="yes"/>
      <point x="598.0" y="1450.0"/>
      <point x="428" y="1316"/>
    </contour>
    <contour>
      <point x="759.0" y="955.0" type="curve" smooth="yes"/>
      <point x="581.0" y="231.0" type="line" smooth="yes"/>
      <point x="454" y="-285"/>
      <point x="341" y="-401.0"/>
      <point x="200.0" y="-401.0" type="curve" smooth="yes"/>
      <point x="113" y="-401"/>
      <point x="70.0" y="-348.0"/>
      <point x="55.0" y="-235.0" type="curve"/>
      <point x="-3.0" y="-313.0" type="line"/>
      <point x="46.0" y="-396.0"/>
      <point x="106" y="-425"/>
      <point x="190.0" y="-425.0" type="curve" smooth="yes"/>
      <point x="367.0" y="-425.0"/>
      <point x="522" y="-273"/>
      <point x="678.0" y="341.0" type="curve" smooth="yes"/>
      <point x="850.0" y="1018.0" type="line" smooth="yes"/>
      <point x="937" y="1360"/>
      <point x="1046.0" y="1463.0"/>
      <point x="1188.0" y="1463.0" type="curve" smooth="yes"/>
      <point x="1252.0" y="1463.0"/>
      <point x="1275.0" y="1436.0"/>
      <point x="1263.0" y="1369.0" type="curve" smooth="yes"/>
      <point x="1251.0" y="1302.0"/>
      <point x="1265.0" y="1283.0"/>
      <point x="1302.0" y="1283.0" type="curve" smooth="yes"/>
      <point x="1346.0" y="1283.0"/>
      <point x="1385.0" y="1317.0"/>
      <point x="1385.0" y="1374.0" type="curve" smooth="yes"/>
      <point x="1385.0" y="1430.0"/>
      <point x="1330.0" y="1484.0"/>
      <point x="1219.0" y="1484.0" type="curve" smooth="yes"/>
      <point x="1024.0" y="1484.0"/>
      <point x="858" y="1356"/>
    </contour>
    <contour>
      <point x="134.0" y="997.0" type="line"/>
      <point x="1236.0" y="997.0" type="line"/>
      <point x="1221.0" y="1013.0" type="line"/>
      <point x="899.0" y="74.0" type="line" smooth="yes"/>
      <point x="879.0" y="15.0"/>
      <point x="871.0" y="-20.0"/>
      <point x="927.0" y="-20.0" type="curve" smooth="yes"/>
      <point x="1020.0" y="-20.0"/>
      <point x="1115.0" y="39.0"/>
      <point x="1294.0" y="290.0" type="curve"/>
      <point x="1287.0" y="295.0" type="line"/>
      <point x="1110.0" y="81.0"/>
      <point x="972.0" y="26.0"/>
      <point x="914.0" y="49.0" type="curve"/>
      <point x="940.0" y="6.0" type="line"/>
      <point x="1302.0" y="1044.0" type="line"/>
      <point x="1293.0" y="1044.0" type="line"/>
      <point x="1259.0" y="1033.0"/>
      <point x="1213.0" y="1024.0"/>
      <point x="1120.0" y="1024.0" type="curve" smooth="yes"/>
      <point x="140.0" y="1024.0" type="line"/>
    </contour>
  </outline>
</glyph>
<glyph name="five.lf" format="2">
  <advance width="895"/>
  <outline>
    <contour>
      <point x="484.0" y="1364.0" type="line"/>
      <point x="1009.0" y="1364.0" type="line"/>
      <point x="1073.0" y="1461.0" type="line"/>
      <point x="916.0" y="1430.0" type="line"/>
      <point x="498.0" y="1430.0" type="line"/>
      <point x="225.0" y="871.0" type="line"/>
      <point x="607.0" y="821.0"/>
      <point x="720.0" y="674.0"/>
      <point x="720.0" y="492.0" type="curve" smooth="yes"/>
      <point x="720.0" y="243.0"/>
      <point x="502.0" y="21.0"/>
      <point x="256.0" y="21.0" type="curve" smooth="yes"/>
      <point x="82.0" y="21.0"/>
      <point x="28.0" y="111.0"/>
      <point x="-2.0" y="111.0" type="curve" smooth="yes"/>
      <point x="-33.0" y="111.0"/>
      <point x="-50.0" y="86.0"/>
      <point x="-50.0" y="56.0" type="curve" smooth="yes"/>
      <point x="-50.0" y="14.0"/>
      <point x="1.0" y="-20.0"/>
      <point x="144.0" y="-20.0" type="curve" smooth="yes"/>
      <point x="593.0" y="-20.0"/>
      <point x="786.0" y="280.0"/>
      <point x="786.0" y="517.0" type="curve" smooth="yes"/>
      <point x="786.0" y="694.0"/>
      <point x="686.0" y="874.0"/>
      <point x="276.0" y="936.0" type="curve"/>
      <point x="255.0" y="887.0" type="line"/>
      <point x="531.0" y="1414.0" type="line"/>
    </contour>
  </outline>
</glyph>
<glyph name="four.lf" format="2">
  <advance width="1021"/>
  <outline>
    <contour>
      <point x="894.0" y="1362.0" type="line"/>
      <point x="488.0" y="36.0" type="line"/>
      <point x="286.0" y="12.0" type="line"/>
      <point x="283.0" y="0.0" type="line"/>
      <point x="730.0" y="0.0" type="line"/>
      <point x="734.0" y="12.0" type="line"/>
      <point x="563.0" y="36.0" type="line"/>
      <point x="995.0" y="1450.0" type="line"/>
      <point x="976.0" y="1450.0" type="line"/>
      <point x="8.0" y="510.0" type="line"/>
      <point x="8.0" y="492.0" type="line"/>
      <point x="956.0" y="492.0" type="line"/>
      <point x="1029.0" y="586.0" type="line"/>
      <point x="872.0" y="548.0" type="line"/>
      <point x="64.0" y="548.0" type="line"/>
      <point x="75.0" y="537.0" type="line"/>
      <point x="899.0" y="1335.0" type="line"/>
    </contour>
  </outline>
</glyph>
<glyph name="gravecomb.case" format="2">
  <anchor x="281" y="1430.0" name="_UCtop"/>
  <anchor x="437" y="1941" name="UCtop"/>
  <outline>
    <contour>
      <point x="342.0" y="1544.0" type="line"/>
      <point x="265.0" y="1870.0" type="line"/>
      <point x="157.0" y="1870.0" type="line"/>
      <point x="157.0" y="1864.0" type="line"/>
      <point x="325.0" y="1544.0" type="line"/>
    </contour>
  </outline>
</glyph>
<glyph name="lira.lf" format="2">
  <advance width="1127"/>
  <outline>
    <contour>
      <point x="106.0" y="65.0" type="line"/>
      <point x="99.0" y="45.0" type="line"/>
      <point x="442.0" y="354.0"/>
      <point x="513.0" y="481.0"/>
      <point x="513.0" y="601.0" type="curve" smooth="yes"/>
      <point x="513.0" y="741.0"/>
      <point x="420.0" y="873.0"/>
      <point x="420.0" y="1053.0" type="curve" smooth="yes"/>
      <point x="420.0" y="1231.0"/>
      <point x="532.0" y="1397.0"/>
      <point x="792.0" y="1397.0" type="curve" smooth="yes"/>
      <point x="1017.0" y="1397.0"/>
      <point x="1124.0" y="1248.0"/>
      <point x="1130.0" y="984.0" type="curve"/>
      <point x="1145.0" y="984.0" type="line"/>
      <point x="1148.0" y="1297.0"/>
      <point x="1029.0" y="1450.0"/>
      <point x="782.0" y="1450.0" type="curve" smooth="yes"/>
      <point x="498.0" y="1450.0"/>
      <point x="346.0" y="1259.0"/>
      <point x="346.0" y="1037.0" type="curve" smooth="yes"/>
      <point x="346.0" y="843.0"/>
      <point x="448.0" y="721.0"/>
      <point x="448.0" y="584.0" type="curve" smooth="yes"/>
      <point x="448.0" y="468.0"/>
      <point x="392.0" y="344.0"/>
      <point x="41.0" y="16.0" type="curve"/>
      <point x="36.0" y="0.0" type="line"/>
      <point x="767.0" y="0.0" type="line"/>
      <point x="826.0" y="-20.0" type="line"/>
      <point x="834.0" y="-20.0" type="line"/>
      <point x="1004.0" y="333.0" type="line"/>
      <point x="990.0" y="333.0" type="line"/>
      <point x="759.0" y="49.0" type="line"/>
      <point x="802.0" y="65.0" type="line"/>
    </contour>
    <contour>
      <point x="849.0" y="582.0" type="line"/>
      <point x="114.0" y="582.0" type="line"/>
      <point x="101.0" y="540.0" type="line"/>
      <point x="837.0" y="540.0" type="line"/>
    </contour>
    <contour>
      <point x="947.0" y="900.0" type="line"/>
      <point x="211.0" y="900.0" type="line"/>
      <point x="199.0" y="858.0" type="line"/>
      <point x="934.0" y="858.0" type="line"/>
    </contour>
  </outline>
</glyph>
<glyph name="seven.lf" format="2">
  <advance width="891"/>
  <outline>
    <contour>
      <point x="364.0" y="1364.0" type="line"/>
      <point x="1076.0" y="1364.0" type="line"/>
      <point x="1089.0" y="1401.0" type="line"/>
      <point x="149.0" y="0.0" type="line"/>
      <point x="249.0" y="0.0" type="line"/>
      <point x="1124.0" y="1417.0" type="line"/>
      <point x="1128.0" y="1430.0" type="line"/>
      <point x="413.0" y="1430.0" type="line"/>
      <point x="364.0" y="1480.0" type="line"/>
      <point x="358.0" y="1480.0" type="line"/>
      <point x="199.0" y="1082.0" type="line"/>
      <point x="214.0" y="1082.0" type="line"/>
      <point x="426.0" y="1388.0" type="line"/>
    </contour>
  </outline>
</glyph>
<glyph name="sterling.lf" format="2">
  <advance width="1103"/>
  <outline>
    <contour>
      <point x="873.0" y="741.0" type="line"/>
      <point x="139.0" y="741.0" type="line"/>
      <point x="126.0" y="699.0" type="line"/>
      <point x="860.0" y="699.0" type="line"/>
    </contour>
    <contour>
      <point x="82.0" y="65.0" type="line"/>
      <point x="75.0" y="45.0" type="line"/>
      <point x="418.0" y="354.0"/>
      <point x="489.0" y="481.0"/>
      <point x="489.0" y="601.0" type="curve" smooth="yes"/>
      <point x="489.0" y="741.0"/>
      <point x="396.0" y="873.0"/>
      <point x="396.0" y="1053.0" type="curve" smooth="yes"/>
      <point x="396.0" y="1231.0"/>
      <point x="508.0" y="1397.0"/>
      <point x="768.0" y="1397.0" type="curve" smooth="yes"/>
      <point x="993.0" y="1397.0"/>
      <point x="1100.0" y="1248.0"/>
      <point x="1106.0" y="984.0" type="curve"/>
      <point x="1121.0" y="984.0" type="line"/>
      <point x="1124.0" y="1297.0"/>
      <point x="1005.0" y="1450.0"/>
      <point x="758.0" y="1450.0" type="curve" smooth="yes"/>
      <point x="474.0" y="1450.0"/>
      <point x="322.0" y="1259.0"/>
      <point x="322.0" y="1037.0" type="curve" smooth="yes"/>
      <point x="322.0" y="843.0"/>
      <point x="424.0" y="721.0"/>
      <point x="424.0" y="584.0" type="curve" smooth="yes"/>
      <point x="424.0" y="468.0"/>
      <point x="368.0" y="344.0"/>
      <point x="17.0" y="16.0" type="curve"/>
      <point x="12.0" y="0.0" type="line"/>
      <point x="743.0" y="0.0" type="line"/>
      <point x="802.0" y="-20.0" type="line"/>
      <point x="810.0" y="-20.0" type="line"/>
      <point x="980.0" y="333.0" type="line"/>
      <point x="966.0" y="333.0" type="line"/>
      <point x="735.0" y="49.0" type="line"/>
      <point x="778.0" y="65.0" type="line"/>
    </contour>
  </outline>
</glyph>
<glyph name="two.lf" format="2">
  <advance width="1006"/>
  <guideline x="120.0" y="1033" angle="0" identifier="8f5pKinAkR"/>
  <outline>
    <contour>
      <point x="254.0" y="1033.0" type="line"/>
      <point x="346.17822048592757" y="1303.177542803581"/>
      <point x="484.0" y="1389.0"/>
      <point x="652.0" y="1389.0" type="curve" smooth="yes"/>
      <point x="814.0" y="1389.0"/>
      <point x="916.0" y="1295.759336099585"/>
      <point x="916.0" y="1141.0" type="curve" smooth="yes"/>
      <point x="916.0" y="1007.0"/>
      <point x="852.0" y="844.0"/>
      <point x="569.0" y="584.0" type="curve" smooth="yes"/>
      <point x="-50.0" y="16.0" type="line"/>
      <point x="-55.0" y="0.0" type="line"/>
      <point x="654.0" y="0.0" type="line"/>
      <point x="713.0" y="-20.0" type="line"/>
      <point x="721.0" y="-20.0" type="line"/>
      <point x="891.0" y="333.0" type="line"/>
      <point x="877.0" y="333.0" type="line"/>
      <point x="646.0" y="49.0" type="line"/>
      <point x="689.0" y="65.0" type="line"/>
      <point x="21.0" y="65.0" type="line"/>
      <point x="24.0" y="54.0" type="line"/>
      <point x="587.0" y="555.0" type="line" smooth="yes"/>
      <point x="914.0" y="846.0"/>
      <point x="1008.0" y="981.0"/>
      <point x="1008.0" y="1162.0" type="curve" smooth="yes"/>
      <point x="1008.0" y="1347.0"/>
      <point x="878.0" y="1450.0"/>
      <point x="690.0" y="1450.0" type="curve" smooth="yes"/>
      <point x="476.0" y="1450.0"/>
      <point x="318.2605784193614" y="1313.3262197725185"/>
      <point x="239.0" y="1038.0" type="curve"/>
    </contour>
  </outline>
</glyph>
<glyph name="uni0302.case" format="2">
  <anchor x="281" y="1430.0" name="_UCtop"/>
  <anchor x="415" y="1870.0" name="UCtop"/>
  <outline>
    <contour>
      <point x="33.0" y="1544.0" type="line"/>
      <point x="62.0" y="1544.0" type="line"/>
      <point x="426.0" y="1806.0" type="line"/>
      <point x="380.0" y="1806.0" type="line"/>
      <point x="577.0" y="1544.0" type="line"/>
      <point x="598.0" y="1544.0" type="line"/>
      <point x="448.0" y="1870.0" type="line"/>
      <point x="381.0" y="1870.0" type="line"/>
    </contour>
  </outline>
</glyph>
<glyph name="uni0302_acutecomb" format="2">
  <anchor x="157" y="1024.0" name="_top"/>
  <outline>
    <contour>
      <point x="479.0" y="1335.0" type="line"/>
      <point x="506.0" y="1335.0" type="line"/>
      <point x="858.0" y="1591.0" type="line"/>
      <point x="858.0" y="1602.0" type="line"/>
      <point x="729.0" y="1602.0" type="line"/>
    </contour>
    <contour>
      <point x="-91.0" y="1138.0" type="line"/>
      <point x="-62.0" y="1138.0" type="line"/>
      <point x="302.0" y="1400.0" type="line"/>
      <point x="256.0" y="1400.0" type="line"/>
      <point x="453.0" y="1138.0" type="line"/>
      <point x="474.0" y="1138.0" type="line"/>
      <point x="324.0" y="1464.0" type="line"/>
      <point x="257.0" y="1464.0" type="line"/>
    </contour>
  </outline>
</glyph>
<glyph name="uni0302_hookabovecomb.case" format="2">
  <anchor x="281" y="1430.0" name="_UCtop"/>
  <outline>
    <contour>
      <point x="605.0" y="1771.0" type="curve"/>
      <point x="612.0" y="1752.0" type="line"/>
      <point x="824.0" y="1817.0"/>
      <point x="872.0" y="1879.0"/>
      <point x="872.0" y="1963.0" type="curve" smooth="yes"/>
      <point x="872.0" y="2040.0"/>
      <point x="808.0" y="2100.0"/>
      <point x="627.0" y="2112.0" type="curve"/>
      <point x="610.0" y="2042.0" type="line"/>
      <point x="773.0" y="2033.0"/>
      <point x="819.0" y="1989.0"/>
      <point x="819.0" y="1936.0" type="curve" smooth="yes"/>
      <point x="819.0" y="1886.0"/>
      <point x="794.0" y="1832.0"/>
    </contour>
    <contour>
      <point x="33.0" y="1544.0" type="line"/>
      <point x="62.0" y="1544.0" type="line"/>
      <point x="426.0" y="1806.0" type="line"/>
      <point x="380.0" y="1806.0" type="line"/>
      <point x="577.0" y="1544.0" type="line"/>
      <point x="598.0" y="1544.0" type="line"/>
      <point x="448.0" y="1870.0" type="line"/>
      <point x="381.0" y="1870.0" type="line"/>
    </contour>
  </outline>
</glyph>
<glyph name="uni0302_tildecomb.case" format="2">
  <anchor x="281" y="1430.0" name="_UCtop"/>
  <outline>
    <contour>
      <point x="392.0" y="1692.0" type="line"/>
      <point x="346.0" y="1692.0" type="line"/>
      <point x="534.0" y="1503.0" type="line"/>
      <point x="557.0" y="1503.0" type="line"/>
      <point x="412.0" y="1748.0" type="line"/>
      <point x="345.0" y="1748.0" type="line"/>
      <point x="49.0" y="1503.0" type="line"/>
      <point x="80.0" y="1503.0" type="line"/>
    </contour>
    <contour>
      <point x="704.0" y="2004.0" type="curve"/>
      <point x="683.0" y="2004.0" type="line"/>
      <point x="617.0" y="1889.0"/>
      <point x="579.0" y="1857.0"/>
      <point x="543.0" y="1857.0" type="curve" smooth="yes"/>
      <point x="474.0" y="1857.0"/>
      <point x="405.0" y="2009.0"/>
      <point x="327.0" y="2009.0" type="curve" smooth="yes"/>
      <point x="275.0" y="2009.0"/>
      <point x="234.0" y="1974.0"/>
      <point x="144.0" y="1796.0" type="curve"/>
      <point x="165.0" y="1796.0" type="line"/>
      <point x="231.0" y="1911.0"/>
      <point x="269.0" y="1943.0"/>
      <point x="305.0" y="1943.0" type="curve" smooth="yes"/>
      <point x="374.0" y="1943.0"/>
      <point x="443.0" y="1791.0"/>
      <point x="521.0" y="1791.0" type="curve" smooth="yes"/>
      <point x="573.0" y="1791.0"/>
      <point x="614.0" y="1826.0"/>
    </contour>
  </outline>
</glyph>
<glyph name="uni0306_gravecomb.case" format="2">
  <anchor x="281" y="1430.0" name="_UCtop"/>
  <outline>
    <contour>
      <point x="381.0" y="1721.0" type="line"/>
      <point x="286.0" y="2004.0" type="line"/>
      <point x="185.0" y="2004.0" type="line"/>
      <point x="185.0" y="1994.0" type="line"/>
      <point x="362.0" y="1721.0" type="line"/>
    </contour>
    <contour>
      <point x="322.0" y="1576.0" type="curve" smooth="yes"/>
      <point x="209.0" y="1576.0"/>
      <point x="143.0" y="1614.0"/>
      <point x="143.0" y="1742.0" type="curve"/>
      <point x="123.0" y="1742.0" type="line"/>
      <point x="118.0" y="1549.0"/>
      <point x="169.0" y="1503.0"/>
      <point x="312.0" y="1503.0" type="curve" smooth="yes"/>
      <point x="431.0" y="1503.0"/>
      <point x="510.0" y="1549.0"/>
      <point x="629.0" y="1742.0" type="curve"/>
      <point x="603.0" y="1742.0" type="line"/>
      <point x="525.0" y="1614.0"/>
      <point x="435.0" y="1576.0"/>
    </contour>
  </outline>
</glyph>
<glyph name="uni0306_tildecomb.case" format="2">
  <anchor x="281" y="1430.0" name="_UCtop"/>
  <outline>
    <contour>
      <point x="322.0" y="1576.0" type="curve" smooth="yes"/>
      <point x="209.0" y="1576.0"/>
      <point x="143.0" y="1614.0"/>
      <point x="143.0" y="1742.0" type="curve"/>
      <point x="123.0" y="1742.0" type="line"/>
      <point x="118.0" y="1549.0"/>
      <point x="169.0" y="1503.0"/>
      <point x="312.0" y="1503.0" type="curve" smooth="yes"/>
      <point x="431.0" y="1503.0"/>
      <point x="510.0" y="1549.0"/>
      <point x="629.0" y="1742.0" type="curve"/>
      <point x="603.0" y="1742.0" type="line"/>
      <point x="525.0" y="1614.0"/>
      <point x="435.0" y="1576.0"/>
    </contour>
    <contour>
      <point x="704.0" y="2004.0" type="curve"/>
      <point x="683.0" y="2004.0" type="line"/>
      <point x="617.0" y="1889.0"/>
      <point x="579.0" y="1857.0"/>
      <point x="543.0" y="1857.0" type="curve" smooth="yes"/>
      <point x="474.0" y="1857.0"/>
      <point x="405.0" y="2009.0"/>
      <point x="327.0" y="2009.0" type="curve" smooth="yes"/>
      <point x="275.0" y="2009.0"/>
      <point x="234.0" y="1974.0"/>
      <point x="144.0" y="1796.0" type="curve"/>
      <point x="165.0" y="1796.0" type="line"/>
      <point x="231.0" y="1911.0"/>
      <point x="269.0" y="1943.0"/>
      <point x="305.0" y="1943.0" type="curve" smooth="yes"/>
      <point x="374.0" y="1943.0"/>
      <point x="443.0" y="1791.0"/>
      <point x="521.0" y="1791.0" type="curve" smooth="yes"/>
      <point x="573.0" y="1791.0"/>
      <point x="614.0" y="1826.0"/>
    </contour>
  </outline>
</glyph>
<glyph name="uni20A6.1" format="2">
  <advance width="1200"/>
  <outline>
    <contour>
      <point x="1243.0" y="1394.0" type="line"/>
      <point x="1425.0" y="1418.0" type="line"/>
      <point x="1429.0" y="1430.0" type="line"/>
      <point x="1052.0" y="1430.0" type="line"/>
      <point x="1048.0" y="1418.0" type="line"/>
      <point x="1214.0" y="1394.0" type="line"/>
      <point x="802.0" y="44.0" type="line"/>
      <point x="842.0" y="100.0" type="line"/>
      <point x="593.0" y="1430.0" type="line"/>
      <point x="338.0" y="1430.0" type="line"/>
      <point x="335.0" y="1418.0" type="line"/>
      <point x="512.0" y="1390.0" type="line"/>
      <point x="99.0" y="36.0" type="line"/>
      <point x="-84.0" y="12.0" type="line"/>
      <point x="-87.0" y="0.0" type="line"/>
      <point x="290.0" y="0.0" type="line"/>
      <point x="293.0" y="12.0" type="line"/>
      <point x="127.0" y="36.0" type="line"/>
      <point x="540.0" y="1387.0" type="line"/>
      <point x="527.0" y="1389.0" type="line"/>
      <point x="794.0" y="-20.0" type="line"/>
      <point x="811.0" y="-20.0" type="line"/>
    </contour>
    <contour>
      <point x="969.0" y="540.0" type="line"/>
      <point x="1177.0" y="540.0" type="line"/>
      <point x="1190.0" y="582.0" type="line"/>
      <point x="982.0" y="582.0" type="line"/>
    </contour>
    <contour>
      <point x="282.0" y="582.0" type="line"/>
      <point x="60.0" y="582.0" type="line"/>
      <point x="47.0" y="540.0" type="line"/>
      <point x="270.0" y="540.0" type="line"/>
    </contour>
    <contour>
      <point x="1068.0" y="858.0" type="line"/>
      <point x="1274.0" y="858.0" type="line"/>
      <point x="1287.0" y="900.0" type="line"/>
      <point x="1081.0" y="900.0" type="line"/>
    </contour>
    <contour>
      <point x="376.0" y="900.0" type="line"/>
      <point x="157.0" y="900.0" type="line"/>
      <point x="145.0" y="858.0" type="line"/>
      <point x="364.0" y="858.0" type="line"/>
    </contour>
  </outline>
</glyph>
<glyph name="uni20A6.lf" format="2">
  <advance width="1327"/>
  <outline>
    <contour>
      <point x="1253.0" y="582.0" type="line"/>
      <point x="123.0" y="582.0" type="line"/>
      <point x="110.0" y="540.0" type="line"/>
      <point x="1240.0" y="540.0" type="line"/>
    </contour>
    <contour>
      <point x="1350.0" y="900.0" type="line"/>
      <point x="220.0" y="900.0" type="line"/>
      <point x="208.0" y="858.0" type="line"/>
      <point x="1337.0" y="858.0" type="line"/>
    </contour>
    <contour>
      <point x="1306.0" y="1394.0" type="line"/>
      <point x="1488.0" y="1418.0" type="line"/>
      <point x="1492.0" y="1430.0" type="line"/>
      <point x="1115.0" y="1430.0" type="line"/>
      <point x="1111.0" y="1418.0" type="line"/>
      <point x="1277.0" y="1394.0" type="line"/>
      <point x="865.0" y="44.0" type="line"/>
      <point x="905.0" y="100.0" type="line"/>
      <point x="656.0" y="1430.0" type="line"/>
      <point x="401.0" y="1430.0" type="line"/>
      <point x="398.0" y="1418.0" type="line"/>
      <point x="575.0" y="1390.0" type="line"/>
      <point x="162.0" y="36.0" type="line"/>
      <point x="-21.0" y="12.0" type="line"/>
      <point x="-24.0" y="0.0" type="line"/>
      <point x="353.0" y="0.0" type="line"/>
      <point x="356.0" y="12.0" type="line"/>
      <point x="190.0" y="36.0" type="line"/>
      <point x="603.0" y="1387.0" type="line"/>
      <point x="590.0" y="1389.0" type="line"/>
      <point x="857.0" y="-20.0" type="line"/>
      <point x="874.0" y="-20.0" type="line"/>
    </contour>
  </outline>
</glyph>
<glyph name="uni20A9.1" format="2">
  <advance width="1200"/>
  <outline>
    <contour>
      <point x="863.0" y="1350.0" type="line"/>
      <point x="836.0" y="1343.0" type="line"/>
      <point x="748.0" y="-20.0" type="line"/>
      <point x="763.0" y="-20.0" type="line"/>
      <point x="1355.0" y="1394.0" type="line"/>
      <point x="1484.0" y="1418.0" type="line"/>
      <point x="1489.0" y="1430.0" type="line"/>
      <point x="1213.0" y="1430.0" type="line"/>
      <point x="1209.0" y="1418.0" type="line"/>
      <point x="1321.0" y="1394.0" type="line"/>
      <point x="811.0" y="162.0" type="line"/>
      <point x="822.0" y="162.0" type="line"/>
      <point x="905.0" y="1451.0" type="line"/>
      <point x="889.0" y="1451.0" type="line"/>
      <point x="179.0" y="164.0" type="line"/>
      <point x="192.0" y="164.0" type="line"/>
      <point x="429.0" y="1394.0" type="line"/>
      <point x="561.0" y="1418.0" type="line"/>
      <point x="566.0" y="1430.0" type="line"/>
      <point x="257.0" y="1430.0" type="line"/>
      <point x="253.0" y="1418.0" type="line"/>
      <point x="364.0" y="1394.0" type="line"/>
      <point x="93.0" y="-20.0" type="line"/>
      <point x="108.0" y="-20.0" type="line"/>
    </contour>
    <contour>
      <point x="982.0" y="540.0" type="line"/>
      <point x="1207.0" y="540.0" type="line"/>
      <point x="1220.0" y="582.0" type="line"/>
      <point x="1000.0" y="582.0" type="line"/>
    </contour>
    <contour>
      <point x="248.0" y="582.0" type="line"/>
      <point x="8.0" y="582.0" type="line"/>
      <point x="-5.0" y="540.0" type="line"/>
      <point x="240.0" y="540.0" type="line"/>
    </contour>
    <contour>
      <point x="1118.0" y="858.0" type="line"/>
      <point x="1304.0" y="858.0" type="line"/>
      <point x="1317.0" y="900.0" type="line"/>
      <point x="1136.0" y="900.0" type="line"/>
    </contour>
    <contour>
      <point x="313.0" y="900.0" type="line"/>
      <point x="105.0" y="900.0" type="line"/>
      <point x="92.0" y="858.0" type="line"/>
      <point x="304.0" y="858.0" type="line"/>
    </contour>
  </outline>
</glyph>
<glyph name="uni20B2.lf" format="2">
  <advance width="1131"/>
  <outline>
    <contour>
      <point x="361.0" y="-208.0" type="line"/>
      <point x="406.0" y="-208.0" type="line"/>
      <point x="971.0" y="1638.0" type="line"/>
      <point x="925.0" y="1638.0" type="line"/>
    </contour>
    <contour>
      <point x="222.0" y="464.0" type="curve" smooth="yes"/>
      <point x="222.0" y="927.0"/>
      <point x="492.0" y="1423.0"/>
      <point x="856.0" y="1423.0" type="curve" smooth="yes"/>
      <point x="1033.0" y="1423.0"/>
      <point x="1081.0" y="1268.0"/>
      <point x="1115.0" y="1268.0" type="curve" smooth="yes"/>
      <point x="1153.0" y="1268.0"/>
      <point x="1173.0" y="1286.0"/>
      <point x="1173.0" y="1323.0" type="curve" smooth="yes"/>
      <point x="1173.0" y="1384.0"/>
      <point x="1081.0" y="1450.0"/>
      <point x="884.0" y="1450.0" type="curve" smooth="yes"/>
      <point x="472.0" y="1450.0"/>
      <point x="148.0" y="957.0"/>
      <point x="148.0" y="422.0" type="curve" smooth="yes"/>
      <point x="148.0" y="147.0"/>
      <point x="283.0" y="-20.0"/>
      <point x="513.0" y="-20.0" type="curve" smooth="yes"/>
      <point x="618.0" y="-20.0"/>
      <point x="770.0" y="7.0"/>
      <point x="883.0" y="68.0" type="curve"/>
      <point x="885.0" y="74.0" type="line"/>
      <point x="813.0" y="74.0" type="line"/>
      <point x="987.0" y="643.0" type="line"/>
      <point x="1112.0" y="668.0" type="line"/>
      <point x="1116.0" y="680.0" type="line"/>
      <point x="749.0" y="680.0" type="line"/>
      <point x="745.0" y="668.0" type="line"/>
      <point x="912.0" y="643.0" type="line"/>
      <point x="726.0" y="35.0" type="line"/>
      <point x="771.0" y="80.0" type="line"/>
      <point x="686.0" y="24.0"/>
      <point x="603.0" y="5.0"/>
      <point x="514.0" y="5.0" type="curve" smooth="yes"/>
      <point x="335.0" y="5.0"/>
      <point x="222.0" y="129.0"/>
    </contour>
  </outline>
</glyph>
<glyph name="uni20B9.lf" format="2">
  <advance width="1127"/>
  <outline>
    <contour>
      <point x="1198.0" y="1086.0" type="line"/>
      <point x="282.0" y="1086.0" type="line"/>
      <point x="269.0" y="1044.0" type="line"/>
      <point x="1185.0" y="1044.0" type="line"/>
    </contour>
    <contour>
      <point x="950.0" y="1132.0" type="curve" smooth="yes"/>
      <point x="950.0" y="1278.0"/>
      <point x="869.0" y="1368.0"/>
      <point x="679.0" y="1393.0" type="curve"/>
      <point x="637.0" y="1388.0" type="line"/>
      <point x="1272.0" y="1388.0" type="line"/>
      <point x="1285.0" y="1430.0" type="line"/>
      <point x="396.0" y="1430.0" type="line"/>
      <point x="383.0" y="1388.0" type="line"/>
      <point x="552.0" y="1388.0" type="line" smooth="yes"/>
      <point x="787.0" y="1388.0"/>
      <point x="878.0" y="1302.0"/>
      <point x="878.0" y="1154.0" type="curve" smooth="yes"/>
      <point x="878.0" y="924.0"/>
      <point x="709.0" y="733.0"/>
      <point x="433.0" y="733.0" type="curve" smooth="yes"/>
      <point x="165.0" y="733.0" type="line"/>
      <point x="156.0" y="705.0" type="line"/>
      <point x="485.0" y="705.0" type="line" smooth="yes"/>
      <point x="592.0" y="705.0"/>
      <point x="615.0" y="680.0"/>
      <point x="629.0" y="529.0" type="curve" smooth="yes"/>
      <point x="660.0" y="204.0" type="line" smooth="yes"/>
      <point x="680.0" y="-8.0"/>
      <point x="724.0" y="-13.0"/>
      <point x="900.0" y="0.0" type="curve"/>
      <point x="905.0" y="18.0" type="line"/>
      <point x="797.0" y="17.0"/>
      <point x="750.0" y="33.0"/>
      <point x="734.0" y="189.0" type="curve" smooth="yes"/>
      <point x="704.0" y="490.0" type="line" smooth="yes"/>
      <point x="687.0" y="658.0"/>
      <point x="646.0" y="720.0"/>
      <point x="514.0" y="725.0" type="curve"/>
      <point x="514.0" y="718.0" type="line"/>
      <point x="788.0" y="766.0"/>
      <point x="950.0" y="922.0"/>
    </contour>
  </outline>
</glyph>
<glyph name="uni20BA.lf" format="2">
  <advance width="1160"/>
  <outline>
    <contour>
      <point x="832.0" y="-49.0" type="line"/>
      <point x="1059.0" y="370.0" type="line"/>
      <point x="1049.0" y="375.0" type="line"/>
      <point x="764.0" y="17.0" type="line"/>
      <point x="822.0" y="28.0" type="line"/>
      <point x="176.0" y="28.0" type="line"/>
      <point x="167.0" y="0.0" type="line"/>
      <point x="769.0" y="0.0" type="line"/>
      <point x="827.0" y="-49.0" type="line"/>
    </contour>
    <contour>
      <point x="668.0" y="1394.0" type="line"/>
      <point x="850.0" y="1418.0" type="line"/>
      <point x="854.0" y="1430.0" type="line"/>
      <point x="430.0" y="1430.0" type="line"/>
      <point x="426.0" y="1418.0" type="line"/>
      <point x="593.0" y="1394.0" type="line"/>
      <point x="178.0" y="36.0" type="line"/>
      <point x="-4.0" y="12.0" type="line"/>
      <point x="-8.0" y="0.0" type="line"/>
      <point x="242.0" y="0.0" type="line"/>
    </contour>
    <contour>
      <point x="366.0" y="455.0" type="line"/>
      <point x="843.0" y="681.0" type="line"/>
      <point x="857.0" y="730.0" type="line"/>
      <point x="381.0" y="504.0" type="line"/>
      <point x="341.0" y="496.0" type="line"/>
      <point x="69.0" y="366.0" type="line"/>
      <point x="54.0" y="317.0" type="line"/>
      <point x="326.0" y="447.0" type="line"/>
    </contour>
    <contour>
      <point x="455.0" y="773.0" type="line"/>
      <point x="932.0" y="999.0" type="line"/>
      <point x="947.0" y="1048.0" type="line"/>
      <point x="470.0" y="822.0" type="line"/>
      <point x="430.0" y="814.0" type="line"/>
      <point x="158.0" y="684.0" type="line"/>
      <point x="143.0" y="635.0" type="line"/>
      <point x="415.0" y="765.0" type="line"/>
    </contour>
  </outline>
</glyph>
<glyph name="uni20BC.lf" format="2">
  <advance width="1013"/>
  <outline>
    <contour>
      <point x="679.0" y="1114.0" type="curve" smooth="yes"/>
      <point x="871.0" y="1114.0"/>
      <point x="891.0" y="817.0"/>
      <point x="688.0" y="0.0" type="curve"/>
      <point x="770.0" y="0.0" type="line"/>
      <point x="954.0" y="889.0"/>
      <point x="893.0" y="1146.0"/>
      <point x="686.0" y="1146.0" type="curve" smooth="yes"/>
      <point x="472.0" y="1146.0"/>
      <point x="259.0" y="887.0"/>
      <point x="-60.0" y="0.0" type="curve"/>
      <point x="28.0" y="0.0" type="line"/>
      <point x="284.0" y="817.0"/>
      <point x="487.0" y="1114.0"/>
    </contour>
    <contour>
      <point x="332.0" y="0.0" type="line"/>
      <point x="378.0" y="0.0" type="line"/>
      <point x="815.0" y="1430.0" type="line"/>
      <point x="769.0" y="1430.0" type="line"/>
    </contour>
  </outline>
</glyph>
